<svg xmlns="http://www.w3.org/2000/svg" version="1.1" xmlns:xlink="http://www.w3.org/1999/xlink" xmlns:svgjs="http://svgjs.com/svgjs" width="1440" height="560" preserveAspectRatio="none" viewBox="0 0 1440 560"><g mask="url(&quot;#SvgjsMask1000&quot;)" fill="none"><rect width="1440" height="560" x="0" y="0" fill="#1e3266"></rect><path d="M1488 560L0 560 L0 371.29Q29.43 280.73, 120 310.16Q165.24 283.4, 192 328.64Q269.11 285.75, 312 362.85Q332.67 263.52, 432 284.2Q477.56 257.76, 504 303.33Q591.64 270.97, 624 358.61Q665.07 327.68, 696 368.74Q696.42 297.16, 768 297.58Q796.82 254.39, 840 283.21Q929.75 252.95, 960 342.7Q985.47 296.16, 1032 321.63Q1053.74 271.37, 1104 293.11Q1186.24 255.36, 1224 337.6Q1275.52 317.13, 1296 368.65Q1333 285.65, 1416 322.65Q1460.47 295.12, 1488 339.59z" fill="#182f5d"></path><path d="M1512 560L0 560 L0 434.02Q36.83 350.85, 120 387.68Q187.1 334.78, 240 401.88Q307.25 349.13, 360 416.37Q378.69 363.06, 432 381.74Q476.63 306.38, 552 351.01Q594.38 321.39, 624 363.78Q673.13 340.9, 696 390.03Q748.5 322.52, 816 375.02Q892.65 331.67, 936 408.33Q990.82 391.15, 1008 445.98Q1027.09 345.07, 1128 364.16Q1194.96 311.13, 1248 378.09Q1313.68 371.77, 1320 437.45Q1336.68 382.13, 1392 398.82Q1443.13 329.95, 1512 381.09z" fill="#25467d"></path><path d="M1464 560L0 560 L0 470.69Q37.83 436.52, 72 474.36Q153.24 435.6, 192 516.83Q200.5 453.33, 264 461.83Q284.49 410.31, 336 430.8Q378.35 401.15, 408 443.51Q490.15 405.66, 528 487.81Q573.02 412.83, 648 457.85Q717.02 406.87, 768 475.89Q809.46 397.35, 888 438.81Q930.71 409.52, 960 452.24Q982.29 402.53, 1032 424.83Q1115.56 388.39, 1152 471.95Q1171.73 419.68, 1224 439.41Q1312.17 407.58, 1344 495.75Q1398.35 430.1, 1464 484.45z" fill="#356cb1"></path><path d="M1560 560L0 560 L0 547.34Q72.3 499.64, 120 571.95Q150.63 482.58, 240 513.2Q322.28 475.48, 360 557.76Q383.51 509.27, 432 532.79Q473.14 501.93, 504 543.08Q575.65 494.74, 624 566.39Q689.9 512.29, 744 578.19Q790.01 504.2, 864 550.21Q886.73 500.94, 936 523.67Q983.57 451.24, 1056 498.81Q1110.12 480.93, 1128 535.05Q1211.55 498.6, 1248 582.14Q1271.28 485.42, 1368 508.71Q1398.63 467.35, 1440 497.98Q1513.91 451.89, 1560 525.81z" fill="white"></path></g><defs><mask id="SvgjsMask1000"><rect width="1440" height="560" fill="#ffffff"></rect></mask></defs></svg>