<svg xmlns="http://www.w3.org/2000/svg" version="1.1" xmlns:xlink="http://www.w3.org/1999/xlink" xmlns:svgjs="http://svgjs.com/svgjs" width="1440" height="560" preserveAspectRatio="none" viewBox="0 0 1440 560"><g mask="url(&quot;#SvgjsMask1000&quot;)" fill="none"><rect width="1440" height="560" x="0" y="0" fill="#0e2a47"></rect><path d="M438.68 420.6a11.47 11.47 0 1 0 13.69-18.41z" fill="#e73635"></path><path d="M4.18 12.49a3.7 3.7 0 1 0-7.16 1.86z" stroke="#e73635"></path><path d="M925.5 33.61L939.65 33.61L939.65 47.76L925.5 47.76z" fill="#d3b714"></path><path d="M1377.8 413.36L1397.95 413.36L1397.95 433.51L1377.8 433.51z" stroke="#e73635"></path><path d="M1027.11 515.03a50.63 50.63 0 1 0-100.69-10.79z" fill="#037b0b"></path><path d="M1155.96 140.69L1202.26 140.69L1202.26 186.99L1155.96 186.99z" fill="#e73635"></path><path d="M414.22 468.11L466.56 468.11L466.56 516.52L414.22 516.52z" fill="#e73635"></path><path d="M1022.5 156.08 a53.93 53.93 0 1 0 107.86 0 a53.93 53.93 0 1 0 -107.86 0z" fill="#037b0b"></path><path d="M456.66 480.32L461.92 480.32L461.92 485.58L456.66 485.58z" stroke="#e73635"></path><path d="M91.9 452.72 a25 25 0 1 0 50 0 a25 25 0 1 0 -50 0z" fill="#e73635"></path><path d="M1390.41 95.3 a27 27 0 1 0 54 0 a27 27 0 1 0 -54 0z" fill="#037b0b"></path><path d="M631.13 164.8 a33.42 33.42 0 1 0 66.84 0 a33.42 33.42 0 1 0 -66.84 0z" stroke="#d3b714"></path><path d="M945.05 355.47L996.02 355.47L996.02 379.55L945.05 379.55z" stroke="#d3b714"></path><path d="M500.27 460.69L501.16 460.69L501.16 461.58L500.27 461.58z" fill="#d3b714"></path><path d="M962.5 118.85L1005.64 118.85L1005.64 161.99L962.5 161.99z" stroke="#e73635"></path><path d="M686.58 240.55L694.23 240.55L694.23 248.2L686.58 248.2z" fill="#037b0b"></path><path d="M1153.8 76.95a41.58 41.58 0 1 0-59.21-58.39z" fill="#e73635"></path><path d="M662.71 12.11L707.87 12.11L707.87 57.27L662.71 57.27z" fill="#e73635"></path><path d="M1303.99 176L1313.47 176L1313.47 185.48L1303.99 185.48z" fill="#e73635"></path><path d="M1340.27 496.95a55.95 55.95 0 1 0 99.88 50.46z" stroke="#d3b714"></path><path d="M1235.49 397.03L1266.14 397.03L1266.14 427.68L1235.49 427.68z" fill="#d3b714"></path><path d="M1110.84 559.82L1113.86 559.82L1113.86 608.68L1110.84 608.68z" stroke="#e73635"></path><path d="M1420.12 416.9L1435.08 416.9L1435.08 431.86L1420.12 431.86z" fill="#d3b714"></path><path d="M1115.92 304.09L1124.14 304.09L1124.14 312.31L1115.92 312.31z" fill="#037b0b"></path><path d="M169.64 475.29L184.42 475.29L184.42 482.4L169.64 482.4z" fill="#e73635"></path><path d="M627.85 211.12L651.03 211.12L651.03 230.54L627.85 230.54z" fill="#037b0b"></path><path d="M400.05 492.5L421.89 492.5L421.89 534.76L400.05 534.76z" fill="#e73635"></path><path d="M1034.68 154.06L1083.98 154.06L1083.98 203.36L1034.68 203.36z" fill="#e73635"></path><path d="M318.92 486.99L329.84 486.99L329.84 497.91L318.92 497.91z" stroke="#037b0b"></path><path d="M222.93 255.7 a17.02 17.02 0 1 0 34.04 0 a17.02 17.02 0 1 0 -34.04 0z" stroke="#e73635"></path><path d="M1293.17 316.1L1343.57 316.1L1343.57 345.46L1293.17 345.46z" fill="#d3b714"></path><path d="M500.2 436.21L504.78 436.21L504.78 440.79L500.2 440.79z" stroke="#d3b714"></path><path d="M87.82 123.46 a21.33 21.33 0 1 0 42.66 0 a21.33 21.33 0 1 0 -42.66 0z" stroke="#037b0b"></path></g><defs><mask id="SvgjsMask1000"><rect width="1440" height="560" fill="#ffffff"></rect></mask></defs></svg>