<svg xmlns="http://www.w3.org/2000/svg" version="1.1" xmlns:xlink="http://www.w3.org/1999/xlink" xmlns:svgjs="http://svgjs.com/svgjs" width="1440" height="560" preserveAspectRatio="none" viewBox="0 0 1440 560"><g mask="url(&quot;#SvgjsMask1000&quot;)" fill="none"><rect width="1440" height="560" x="0" y="0" fill="#0e2a47"></rect><path d="M663.54 170.41L663.54 174.14L682.67 174.14L682.67 170.41zM676.07 172.28 a6.6 6.6 0 1 0 13.2 0 a6.6 6.6 0 1 0 -13.2 0zM658.83 197.79L657.41 201.23L685.77 212.98L687.2 209.54zM679.88 211.26 a6.6 6.6 0 1 0 13.2 0 a6.6 6.6 0 1 0 -13.2 0zM644.01 221.28L641.37 223.92L663.73 246.27L666.36 243.64zM658.44 244.95 a6.6 6.6 0 1 0 13.2 0 a6.6 6.6 0 1 0 -13.2 0zM621.32 237.32L617.88 238.74L622.67 250.3L626.11 248.87zM617.79 249.59 a6.6 6.6 0 1 0 13.2 0 a6.6 6.6 0 1 0 -13.2 0zM594.23 243.45L590.5 243.45L590.5 260.55L594.23 260.55zM585.77 260.55 a6.6 6.6 0 1 0 13.2 0 a6.6 6.6 0 1 0 -13.2 0zM566.85 238.74L563.41 237.32L551.84 265.25L555.28 266.68zM546.96 265.97 a6.6 6.6 0 1 0 13.2 0 a6.6 6.6 0 1 0 -13.2 0zM543.36 223.92L540.72 221.28L517.19 244.82L519.82 247.46zM511.9 246.14 a6.6 6.6 0 1 0 13.2 0 a6.6 6.6 0 1 0 -13.2 0zM527.33 201.23L525.9 197.79L498.13 209.29L499.56 212.74zM492.24 211.02 a6.6 6.6 0 1 0 13.2 0 a6.6 6.6 0 1 0 -13.2 0zM521.2 174.14L521.2 170.41L491.38 170.41L491.38 174.14zM484.78 172.28 a6.6 6.6 0 1 0 13.2 0 a6.6 6.6 0 1 0 -13.2 0zM525.9 146.76L527.33 143.32L506.25 134.59L504.82 138.03zM498.93 136.31 a6.6 6.6 0 1 0 13.2 0 a6.6 6.6 0 1 0 -13.2 0zM540.72 123.27L543.36 120.64L524.59 101.86L521.95 104.5zM516.67 103.18 a6.6 6.6 0 1 0 13.2 0 a6.6 6.6 0 1 0 -13.2 0zM563.41 107.24L566.85 105.81L557.98 84.39L554.54 85.81zM549.66 85.1 a6.6 6.6 0 1 0 13.2 0 a6.6 6.6 0 1 0 -13.2 0zM590.5 101.11L594.23 101.11L594.23 75.72L590.5 75.72zM585.77 75.72 a6.6 6.6 0 1 0 13.2 0 a6.6 6.6 0 1 0 -13.2 0zM617.88 105.81L621.32 107.24L633.49 77.87L630.05 76.44zM625.17 77.16 a6.6 6.6 0 1 0 13.2 0 a6.6 6.6 0 1 0 -13.2 0zM641.37 120.64L644.01 123.27L659.86 107.42L657.23 104.78zM651.94 106.1 a6.6 6.6 0 1 0 13.2 0 a6.6 6.6 0 1 0 -13.2 0zM657.41 143.32L658.83 146.76L673.06 140.87L671.63 137.43zM665.75 139.15 a6.6 6.6 0 1 0 13.2 0 a6.6 6.6 0 1 0 -13.2 0zM521.18 172.28 a71.19 71.19 0 1 0 142.38 0 a71.19 71.19 0 1 0 -142.38 0z" fill="#488fdb"></path><path d="M566.23 238.5 A70.1936 70.1936 0 0 1 547.97 116.62M547.97 116.62 A142.3872 142.3872 0 0 0 566.23 238.5" fill="#2672c3" fill-rule="nonzero"></path><path d="M574.07 137.72 a14.24 14.24 0 1 0 28.48 0 a14.24 14.24 0 1 0 -28.48 0zM569.99 181.51 a14.24 14.24 0 1 0 28.48 0 a14.24 14.24 0 1 0 -28.48 0zM604.84 203 a3.56 3.56 0 1 0 7.12 0 a3.56 3.56 0 1 0 -7.12 0zM525.25 171.41 a14.24 14.24 0 1 0 28.48 0 a14.24 14.24 0 1 0 -28.48 0zM528.91 202.31 a2.85 2.85 0 1 0 5.7 0 a2.85 2.85 0 1 0 -5.7 0zM617.22 139.75 a6.41 6.41 0 1 0 12.82 0 a6.41 6.41 0 1 0 -12.82 0zM625.36 165.97 a6.41 6.41 0 1 0 12.82 0 a6.41 6.41 0 1 0 -12.82 0zM631.8 202.97 a11.39 11.39 0 1 0 22.78 0 a11.39 11.39 0 1 0 -22.78 0zM618.51 112.78 a4.27 4.27 0 1 0 8.54 0 a4.27 4.27 0 1 0 -8.54 0zM537.43 130.59 a8.54 8.54 0 1 0 17.08 0 a8.54 8.54 0 1 0 -17.08 0z" fill="#2672c3" fill-rule="nonzero"></path><path d="M1344.1 456.23L1344.1 459.5L1363.61 459.5L1363.61 456.23zM1357.83 457.86 a5.78 5.78 0 1 0 11.56 0 a5.78 5.78 0 1 0 -11.56 0zM1339.98 480.19L1338.73 483.2L1351.89 488.65L1353.14 485.64zM1346.73 487.15 a5.78 5.78 0 1 0 11.56 0 a5.78 5.78 0 1 0 -11.56 0zM1327.01 500.75L1324.7 503.05L1339.26 517.61L1341.57 515.3zM1334.64 516.46 a5.78 5.78 0 1 0 11.56 0 a5.78 5.78 0 1 0 -11.56 0zM1307.16 514.77L1304.15 516.02L1309.01 527.75L1312.02 526.51zM1304.73 527.13 a5.78 5.78 0 1 0 11.56 0 a5.78 5.78 0 1 0 -11.56 0zM1283.45 520.14L1280.19 520.14L1280.19 536.63L1283.45 536.63zM1276.04 536.63 a5.78 5.78 0 1 0 11.56 0 a5.78 5.78 0 1 0 -11.56 0zM1259.5 516.02L1256.49 514.77L1250.42 529.42L1253.43 530.67zM1246.15 530.04 a5.78 5.78 0 1 0 11.56 0 a5.78 5.78 0 1 0 -11.56 0zM1238.94 503.05L1236.64 500.75L1219.28 518.1L1221.59 520.4zM1214.66 519.25 a5.78 5.78 0 1 0 11.56 0 a5.78 5.78 0 1 0 -11.56 0zM1224.91 483.2L1223.67 480.19L1207.58 486.85L1208.83 489.86zM1202.43 488.36 a5.78 5.78 0 1 0 11.56 0 a5.78 5.78 0 1 0 -11.56 0zM1219.55 459.5L1219.55 456.23L1204.35 456.23L1204.35 459.5zM1198.57 457.86 a5.78 5.78 0 1 0 11.56 0 a5.78 5.78 0 1 0 -11.56 0zM1223.67 435.54L1224.91 432.53L1202.56 423.27L1201.31 426.28zM1196.15 424.77 a5.78 5.78 0 1 0 11.56 0 a5.78 5.78 0 1 0 -11.56 0zM1236.64 414.98L1238.94 412.68L1223.19 396.92L1220.88 399.23zM1216.26 398.08 a5.78 5.78 0 1 0 11.56 0 a5.78 5.78 0 1 0 -11.56 0zM1256.49 400.96L1259.5 399.71L1256.28 391.94L1253.27 393.19zM1248.99 392.56 a5.78 5.78 0 1 0 11.56 0 a5.78 5.78 0 1 0 -11.56 0zM1280.19 395.59L1283.45 395.59L1283.45 366.66L1280.19 366.66zM1276.04 366.66 a5.78 5.78 0 1 0 11.56 0 a5.78 5.78 0 1 0 -11.56 0zM1304.15 399.71L1307.16 400.96L1315.82 380.06L1312.8 378.81zM1308.53 379.43 a5.78 5.78 0 1 0 11.56 0 a5.78 5.78 0 1 0 -11.56 0zM1324.7 412.68L1327.01 414.98L1337.22 404.77L1334.91 402.47zM1330.29 403.62 a5.78 5.78 0 1 0 11.56 0 a5.78 5.78 0 1 0 -11.56 0zM1338.73 432.53L1339.98 435.54L1365.01 425.17L1363.76 422.16zM1358.6 423.67 a5.78 5.78 0 1 0 11.56 0 a5.78 5.78 0 1 0 -11.56 0zM1219.53 457.86 a62.29 62.29 0 1 0 124.58 0 a62.29 62.29 0 1 0 -124.58 0z" fill="#488fdb"></path><path d="M1330.68 496.52 A61.294399999999996 61.294399999999996 0 0 1 1223.97 480.97M1223.97 480.97 A124.58879999999999 124.58879999999999 0 0 0 1330.68 496.52" fill="#2672c3" fill-rule="nonzero"></path><path d="M1289.77 484.06 a12.46 12.46 0 1 0 24.92 0 a12.46 12.46 0 1 0 -24.92 0zM1294.03 514.49 a3.11 3.11 0 1 0 6.22 0 a3.11 3.11 0 1 0 -6.22 0zM1252.52 446.28 a12.46 12.46 0 1 0 24.92 0 a12.46 12.46 0 1 0 -24.92 0zM1288.4 431.81 a12.46 12.46 0 1 0 24.92 0 a12.46 12.46 0 1 0 -24.92 0zM1250.76 507.05 a7.48 7.48 0 1 0 14.96 0 a7.48 7.48 0 1 0 -14.96 0zM1234.84 474.13 a9.34 9.34 0 1 0 18.68 0 a9.34 9.34 0 1 0 -18.68 0zM1235.06 437.56 a3.11 3.11 0 1 0 6.22 0 a3.11 3.11 0 1 0 -6.22 0zM1333.71 451.8 a4.98 4.98 0 1 0 9.96 0 a4.98 4.98 0 1 0 -9.96 0zM1267.86 487.2 a3.74 3.74 0 1 0 7.48 0 a3.74 3.74 0 1 0 -7.48 0zM1322.7 466.83 a2.49 2.49 0 1 0 4.98 0 a2.49 2.49 0 1 0 -4.98 0z" fill="#2672c3" fill-rule="nonzero"></path><path d="M1008.95 165.87L1008.95 169.59L1034.08 169.59L1034.08 165.87zM1027.48 167.73 a6.6 6.6 0 1 0 13.2 0 a6.6 6.6 0 1 0 -13.2 0zM1004.24 193.24L1002.82 196.69L1017.57 202.8L1019 199.35zM1011.69 201.08 a6.6 6.6 0 1 0 13.2 0 a6.6 6.6 0 1 0 -13.2 0zM989.42 216.74L986.79 219.37L1007.97 240.56L1010.61 237.92zM1002.69 239.24 a6.6 6.6 0 1 0 13.2 0 a6.6 6.6 0 1 0 -13.2 0zM966.74 232.77L963.29 234.19L972.24 255.79L975.68 254.37zM967.36 255.08 a6.6 6.6 0 1 0 13.2 0 a6.6 6.6 0 1 0 -13.2 0zM939.64 238.9L935.92 238.9L935.92 272.21L939.64 272.21zM931.18 272.21 a6.6 6.6 0 1 0 13.2 0 a6.6 6.6 0 1 0 -13.2 0zM912.27 234.19L908.82 232.77L895.78 264.24L899.23 265.67zM890.91 264.96 a6.6 6.6 0 1 0 13.2 0 a6.6 6.6 0 1 0 -13.2 0zM888.77 219.37L886.14 216.74L872.89 229.98L875.53 232.62zM867.61 231.3 a6.6 6.6 0 1 0 13.2 0 a6.6 6.6 0 1 0 -13.2 0zM872.74 196.69L871.31 193.24L851.17 201.59L852.6 205.03zM845.29 203.31 a6.6 6.6 0 1 0 13.2 0 a6.6 6.6 0 1 0 -13.2 0zM866.61 169.59L866.61 165.87L833.77 165.87L833.77 169.59zM827.17 167.73 a6.6 6.6 0 1 0 13.2 0 a6.6 6.6 0 1 0 -13.2 0zM871.31 142.22L872.74 138.77L863.67 135.01L862.24 138.46zM856.36 136.74 a6.6 6.6 0 1 0 13.2 0 a6.6 6.6 0 1 0 -13.2 0zM886.14 118.72L888.77 116.09L870.37 97.68L867.73 100.32zM862.45 99 a6.6 6.6 0 1 0 13.2 0 a6.6 6.6 0 1 0 -13.2 0zM908.82 102.69L912.27 101.26L903.61 80.38L900.17 81.8zM895.29 81.09 a6.6 6.6 0 1 0 13.2 0 a6.6 6.6 0 1 0 -13.2 0zM935.92 96.56L939.64 96.56L939.64 66.72L935.92 66.72zM931.18 66.72 a6.6 6.6 0 1 0 13.2 0 a6.6 6.6 0 1 0 -13.2 0zM963.29 101.26L966.74 102.69L971.93 90.16L968.48 88.74zM963.6 89.45 a6.6 6.6 0 1 0 13.2 0 a6.6 6.6 0 1 0 -13.2 0zM986.79 116.09L989.42 118.72L1013.14 95.01L1010.5 92.37zM1005.22 93.69 a6.6 6.6 0 1 0 13.2 0 a6.6 6.6 0 1 0 -13.2 0zM1002.82 138.77L1004.24 142.22L1014.67 137.9L1013.24 134.46zM1007.35 136.18 a6.6 6.6 0 1 0 13.2 0 a6.6 6.6 0 1 0 -13.2 0zM866.59 167.73 a71.19 71.19 0 1 0 142.38 0 a71.19 71.19 0 1 0 -142.38 0z" fill="#488fdb"></path><path d="M888.06 218.68 A70.1936 70.1936 0 0 1 918.37 99.23M918.37 99.23 A142.3872 142.3872 0 0 0 888.06 218.68" fill="#2672c3" fill-rule="nonzero"></path><path d="M881.62 208.93 a4.27 4.27 0 1 0 8.54 0 a4.27 4.27 0 1 0 -8.54 0zM890.07 176.8 a14.24 14.24 0 1 0 28.48 0 a14.24 14.24 0 1 0 -28.48 0zM881.61 141.03 a9.26 9.26 0 1 0 18.52 0 a9.26 9.26 0 1 0 -18.52 0zM915.59 212.1 a14.24 14.24 0 1 0 28.48 0 a14.24 14.24 0 1 0 -28.48 0zM944.49 168.04 a14.24 14.24 0 1 0 28.48 0 a14.24 14.24 0 1 0 -28.48 0zM958.73 230.28 a3.56 3.56 0 1 0 7.12 0 a3.56 3.56 0 1 0 -7.12 0zM929.14 116.95 a14.24 14.24 0 1 0 28.48 0 a14.24 14.24 0 1 0 -28.48 0zM870.39 172.76 a2.85 2.85 0 1 0 5.7 0 a2.85 2.85 0 1 0 -5.7 0zM977.11 209.99 a7.83 7.83 0 1 0 15.66 0 a7.83 7.83 0 1 0 -15.66 0zM997.2 148.54 a4.27 4.27 0 1 0 8.54 0 a4.27 4.27 0 1 0 -8.54 0z" fill="#2672c3" fill-rule="nonzero"></path><path d="M1055.53 440.79L1055.53 443.59L1067.39 443.59L1067.39 440.79zM1062.44 442.19 a4.95 4.95 0 1 0 9.9 0 a4.95 4.95 0 1 0 -9.9 0zM1052 461.33L1050.93 463.91L1069.43 471.57L1070.5 468.99zM1065.01 470.28 a4.95 4.95 0 1 0 9.9 0 a4.95 4.95 0 1 0 -9.9 0zM1040.88 478.95L1038.91 480.92L1046.86 488.88L1048.84 486.9zM1042.9 487.89 a4.95 4.95 0 1 0 9.9 0 a4.95 4.95 0 1 0 -9.9 0zM1023.87 490.97L1021.29 492.04L1028.5 509.45L1031.08 508.38zM1024.84 508.91 a4.95 4.95 0 1 0 9.9 0 a4.95 4.95 0 1 0 -9.9 0zM1003.55 495.57L1000.75 495.57L1000.75 515.19L1003.55 515.19zM997.2 515.19 a4.95 4.95 0 1 0 9.9 0 a4.95 4.95 0 1 0 -9.9 0zM983.02 492.04L980.43 490.97L970.41 515.17L972.99 516.24zM966.75 515.7 a4.95 4.95 0 1 0 9.9 0 a4.95 4.95 0 1 0 -9.9 0zM965.4 480.92L963.42 478.95L958.25 484.12L960.23 486.09zM954.29 485.1 a4.95 4.95 0 1 0 9.9 0 a4.95 4.95 0 1 0 -9.9 0zM953.37 463.91L952.3 461.33L930.86 470.21L931.93 472.79zM926.44 471.5 a4.95 4.95 0 1 0 9.9 0 a4.95 4.95 0 1 0 -9.9 0zM948.77 443.59L948.77 440.79L939.91 440.79L939.91 443.59zM934.96 442.19 a4.95 4.95 0 1 0 9.9 0 a4.95 4.95 0 1 0 -9.9 0zM952.3 423.06L953.37 420.47L937.12 413.74L936.05 416.33zM931.64 415.03 a4.95 4.95 0 1 0 9.9 0 a4.95 4.95 0 1 0 -9.9 0zM963.42 405.44L965.4 403.46L957.87 395.94L955.9 397.91zM951.93 396.93 a4.95 4.95 0 1 0 9.9 0 a4.95 4.95 0 1 0 -9.9 0zM980.43 393.41L983.02 392.34L975.51 374.23L972.93 375.3zM969.27 374.76 a4.95 4.95 0 1 0 9.9 0 a4.95 4.95 0 1 0 -9.9 0zM1000.75 388.82L1003.55 388.82L1003.55 379.2L1000.75 379.2zM997.2 379.2 a4.95 4.95 0 1 0 9.9 0 a4.95 4.95 0 1 0 -9.9 0zM1021.29 392.34L1023.87 393.41L1033.65 369.79L1031.07 368.72zM1027.41 369.26 a4.95 4.95 0 1 0 9.9 0 a4.95 4.95 0 1 0 -9.9 0zM1038.91 403.46L1040.88 405.44L1047.22 399.09L1045.25 397.12zM1041.29 398.11 a4.95 4.95 0 1 0 9.9 0 a4.95 4.95 0 1 0 -9.9 0zM1050.93 420.47L1052 423.06L1072.72 414.47L1071.65 411.89zM1067.24 413.18 a4.95 4.95 0 1 0 9.9 0 a4.95 4.95 0 1 0 -9.9 0zM948.75 442.19 a53.4 53.4 0 1 0 106.8 0 a53.4 53.4 0 1 0 -106.8 0z" fill="#488fdb"></path><path d="M1011.69 494.73 A52.3952 52.3952 0 0 1 951.85 424.29M951.85 424.29 A106.7904 106.7904 0 0 0 1011.69 494.73" fill="#2672c3" fill-rule="nonzero"></path><path d="M986.91 441.11 a10.68 10.68 0 1 0 21.36 0 a10.68 10.68 0 1 0 -21.36 0zM1014.02 424.47 a8.54 8.54 0 1 0 17.08 0 a8.54 8.54 0 1 0 -17.08 0zM965.53 469.89 a10.68 10.68 0 1 0 21.36 0 a10.68 10.68 0 1 0 -21.36 0zM998.92 394.04 a4.81 4.81 0 1 0 9.62 0 a4.81 4.81 0 1 0 -9.62 0zM973.14 402.19 a8.01 8.01 0 1 0 16.02 0 a8.01 8.01 0 1 0 -16.02 0zM1047.22 458.69 a2.67 2.67 0 1 0 5.34 0 a2.67 2.67 0 1 0 -5.34 0zM1041.63 428.42 a5.87 5.87 0 1 0 11.74 0 a5.87 5.87 0 1 0 -11.74 0zM1011.16 489.84 a3.74 3.74 0 1 0 7.48 0 a3.74 3.74 0 1 0 -7.48 0zM1031.91 450.58 a3.2 3.2 0 1 0 6.4 0 a3.2 3.2 0 1 0 -6.4 0zM1008.3 462.18 a3.74 3.74 0 1 0 7.48 0 a3.74 3.74 0 1 0 -7.48 0z" fill="#2672c3" fill-rule="nonzero"></path><path d="M1400.67 232.65L1400.67 234.51L1410.65 234.51L1410.65 232.65zM1407.35 233.58 a3.3 3.3 0 1 0 6.6 0 a3.3 3.3 0 1 0 -6.6 0zM1398.32 246.34L1397.61 248.06L1409.25 252.88L1409.96 251.16zM1406.31 252.02 a3.3 3.3 0 1 0 6.6 0 a3.3 3.3 0 1 0 -6.6 0zM1390.91 258.08L1389.59 259.4L1395.85 265.66L1397.17 264.34zM1393.21 265 a3.3 3.3 0 1 0 6.6 0 a3.3 3.3 0 1 0 -6.6 0zM1379.57 266.1L1377.85 266.81L1383.49 280.44L1385.21 279.73zM1381.05 280.08 a3.3 3.3 0 1 0 6.6 0 a3.3 3.3 0 1 0 -6.6 0zM1366.02 269.17L1364.16 269.17L1364.16 284.83L1366.02 284.83zM1361.79 284.83 a3.3 3.3 0 1 0 6.6 0 a3.3 3.3 0 1 0 -6.6 0zM1352.33 266.81L1350.61 266.1L1344.66 280.46L1346.39 281.17zM1342.22 280.81 a3.3 3.3 0 1 0 6.6 0 a3.3 3.3 0 1 0 -6.6 0zM1340.59 259.4L1339.27 258.08L1332.97 264.38L1334.29 265.7zM1330.33 265.04 a3.3 3.3 0 1 0 6.6 0 a3.3 3.3 0 1 0 -6.6 0zM1332.57 248.06L1331.86 246.34L1317.55 252.27L1318.26 253.99zM1314.6 253.13 a3.3 3.3 0 1 0 6.6 0 a3.3 3.3 0 1 0 -6.6 0zM1329.5 234.51L1329.5 232.65L1314.66 232.65L1314.66 234.51zM1311.36 233.58 a3.3 3.3 0 1 0 6.6 0 a3.3 3.3 0 1 0 -6.6 0zM1331.86 220.82L1332.57 219.1L1323.95 215.53L1323.24 217.25zM1320.29 216.39 a3.3 3.3 0 1 0 6.6 0 a3.3 3.3 0 1 0 -6.6 0zM1339.27 209.08L1340.59 207.76L1336.17 203.34L1334.85 204.66zM1332.21 204 a3.3 3.3 0 1 0 6.6 0 a3.3 3.3 0 1 0 -6.6 0zM1350.61 201.06L1352.33 200.35L1349.25 192.9L1347.53 193.62zM1345.09 193.26 a3.3 3.3 0 1 0 6.6 0 a3.3 3.3 0 1 0 -6.6 0zM1364.16 198L1366.02 198L1366.02 190.97L1364.16 190.97zM1361.79 190.97 a3.3 3.3 0 1 0 6.6 0 a3.3 3.3 0 1 0 -6.6 0zM1377.85 200.35L1379.57 201.06L1383.59 191.35L1381.87 190.64zM1379.43 191 a3.3 3.3 0 1 0 6.6 0 a3.3 3.3 0 1 0 -6.6 0zM1389.59 207.76L1390.91 209.08L1400 199.99L1398.68 198.67zM1396.04 199.33 a3.3 3.3 0 1 0 6.6 0 a3.3 3.3 0 1 0 -6.6 0zM1397.61 219.1L1398.32 220.82L1410.98 215.58L1410.27 213.86zM1407.32 214.72 a3.3 3.3 0 1 0 6.6 0 a3.3 3.3 0 1 0 -6.6 0zM1329.49 233.58 a35.6 35.6 0 1 0 71.2 0 a35.6 35.6 0 1 0 -71.2 0z" fill="#488fdb"></path><path d="M1400.55 230.47 A34.5968 34.5968 0 0 1 1350.12 265.88M1350.12 265.88 A71.1936 71.1936 0 0 0 1400.55 230.47" fill="#2672c3" fill-rule="nonzero"></path><path d="M1377.53 215.6 a7.12 7.12 0 1 0 14.24 0 a7.12 7.12 0 1 0 -14.24 0zM1345.47 253.57 a7.12 7.12 0 1 0 14.24 0 a7.12 7.12 0 1 0 -14.24 0zM1356.35 223.97 a7.12 7.12 0 1 0 14.24 0 a7.12 7.12 0 1 0 -14.24 0zM1369.54 201.39 a2.49 2.49 0 1 0 4.98 0 a2.49 2.49 0 1 0 -4.98 0zM1329.86 234.7 a6.76 6.76 0 1 0 13.52 0 a6.76 6.76 0 1 0 -13.52 0zM1391.66 230.01 a3.2 3.2 0 1 0 6.4 0 a3.2 3.2 0 1 0 -6.4 0zM1345.29 209.16 a5.34 5.34 0 1 0 10.68 0 a5.34 5.34 0 1 0 -10.68 0zM1382.25 235.75 a1.78 1.78 0 1 0 3.56 0 a1.78 1.78 0 1 0 -3.56 0zM1374.71 265.18 a1.78 1.78 0 1 0 3.56 0 a1.78 1.78 0 1 0 -3.56 0zM1391.19 249.77 a2.49 2.49 0 1 0 4.98 0 a2.49 2.49 0 1 0 -4.98 0z" fill="#2672c3" fill-rule="nonzero"></path><path d="M147.52 382.32L147.52 385.11L158.06 385.11L158.06 382.32zM153.11 383.72 a4.95 4.95 0 1 0 9.9 0 a4.95 4.95 0 1 0 -9.9 0zM144 402.85L142.93 405.43L167 415.41L168.07 412.82zM162.59 414.12 a4.95 4.95 0 1 0 9.9 0 a4.95 4.95 0 1 0 -9.9 0zM132.88 420.47L130.9 422.45L138.59 430.14L140.57 428.16zM134.63 429.15 a4.95 4.95 0 1 0 9.9 0 a4.95 4.95 0 1 0 -9.9 0zM115.86 432.5L113.28 433.57L118.5 446.17L121.08 445.1zM114.84 445.63 a4.95 4.95 0 1 0 9.9 0 a4.95 4.95 0 1 0 -9.9 0zM95.54 437.09L92.75 437.09L92.75 449.18L95.54 449.18zM89.2 449.18 a4.95 4.95 0 1 0 9.9 0 a4.95 4.95 0 1 0 -9.9 0zM75.01 433.57L72.43 432.5L69.65 439.19L72.24 440.26zM66 439.73 a4.95 4.95 0 1 0 9.9 0 a4.95 4.95 0 1 0 -9.9 0zM57.39 422.45L55.42 420.47L40.96 434.92L42.94 436.9zM37 435.91 a4.95 4.95 0 1 0 9.9 0 a4.95 4.95 0 1 0 -9.9 0zM45.37 405.43L44.3 402.85L37 405.87L38.07 408.46zM32.58 407.17 a4.95 4.95 0 1 0 9.9 0 a4.95 4.95 0 1 0 -9.9 0zM40.77 385.11L40.77 382.32L26.37 382.32L26.37 385.11zM21.42 383.72 a4.95 4.95 0 1 0 9.9 0 a4.95 4.95 0 1 0 -9.9 0zM44.3 364.58L45.37 362L24.04 353.17L22.97 355.75zM18.56 354.46 a4.95 4.95 0 1 0 9.9 0 a4.95 4.95 0 1 0 -9.9 0zM55.42 346.96L57.39 344.98L48.57 336.16L46.59 338.14zM42.63 337.15 a4.95 4.95 0 1 0 9.9 0 a4.95 4.95 0 1 0 -9.9 0zM72.43 334.94L75.01 333.87L67.46 315.64L64.88 316.71zM61.22 316.17 a4.95 4.95 0 1 0 9.9 0 a4.95 4.95 0 1 0 -9.9 0zM92.75 330.34L95.54 330.34L95.54 316.68L92.75 316.68zM89.2 316.68 a4.95 4.95 0 1 0 9.9 0 a4.95 4.95 0 1 0 -9.9 0zM113.28 333.87L115.86 334.94L122.11 319.86L119.53 318.79zM115.87 319.32 a4.95 4.95 0 1 0 9.9 0 a4.95 4.95 0 1 0 -9.9 0zM130.9 344.98L132.88 346.96L139.56 340.28L137.58 338.3zM133.62 339.29 a4.95 4.95 0 1 0 9.9 0 a4.95 4.95 0 1 0 -9.9 0zM142.93 362L144 364.58L164.67 356.02L163.6 353.43zM159.19 354.73 a4.95 4.95 0 1 0 9.9 0 a4.95 4.95 0 1 0 -9.9 0zM40.75 383.72 a53.4 53.4 0 1 0 106.8 0 a53.4 53.4 0 1 0 -106.8 0z" fill="#488fdb"></path><path d="M142.65 361.4 A52.3952 52.3952 0 0 1 89.34 436.89M89.34 436.89 A106.7904 106.7904 0 0 0 142.65 361.4" fill="#2672c3" fill-rule="nonzero"></path><path d="M47.37 406.71 a8.54 8.54 0 1 0 17.08 0 a8.54 8.54 0 1 0 -17.08 0zM125.42 418.55 a3.74 3.74 0 1 0 7.48 0 a3.74 3.74 0 1 0 -7.48 0zM79.69 384.38 a10.68 10.68 0 1 0 21.36 0 a10.68 10.68 0 1 0 -21.36 0zM118.35 368.41 a10.68 10.68 0 1 0 21.36 0 a10.68 10.68 0 1 0 -21.36 0zM63.36 341.32 a2.14 2.14 0 1 0 4.28 0 a2.14 2.14 0 1 0 -4.28 0zM71.9 356.66 a7.48 7.48 0 1 0 14.96 0 a7.48 7.48 0 1 0 -14.96 0zM80.69 433.7 a2.14 2.14 0 1 0 4.28 0 a2.14 2.14 0 1 0 -4.28 0zM41.02 379.11 a8.01 8.01 0 1 0 16.02 0 a8.01 8.01 0 1 0 -16.02 0zM108.55 339.2 a4.81 4.81 0 1 0 9.62 0 a4.81 4.81 0 1 0 -9.62 0zM110.25 400.36 a6.94 6.94 0 1 0 13.88 0 a6.94 6.94 0 1 0 -13.88 0z" fill="#2672c3" fill-rule="nonzero"></path><path d="M344.79 261.18L344.79 263.51L366.18 263.51L366.18 261.18zM362.05 262.34 a4.13 4.13 0 1 0 8.26 0 a4.13 4.13 0 1 0 -8.26 0zM341.85 278.29L340.96 280.44L349.51 283.98L350.4 281.83zM345.82 282.9 a4.13 4.13 0 1 0 8.26 0 a4.13 4.13 0 1 0 -8.26 0zM332.59 292.97L330.94 294.62L335 298.68L336.65 297.03zM331.69 297.85 a4.13 4.13 0 1 0 8.26 0 a4.13 4.13 0 1 0 -8.26 0zM318.41 302.99L316.26 303.88L321.61 316.8L323.76 315.91zM318.55 316.35 a4.13 4.13 0 1 0 8.26 0 a4.13 4.13 0 1 0 -8.26 0zM301.48 306.82L299.15 306.82L299.15 327.52L301.48 327.52zM296.18 327.52 a4.13 4.13 0 1 0 8.26 0 a4.13 4.13 0 1 0 -8.26 0zM284.37 303.88L282.21 302.99L280.05 308.22L282.2 309.11zM276.99 308.67 a4.13 4.13 0 1 0 8.26 0 a4.13 4.13 0 1 0 -8.26 0zM269.68 294.62L268.04 292.97L252.49 308.51L254.14 310.16zM249.19 309.34 a4.13 4.13 0 1 0 8.26 0 a4.13 4.13 0 1 0 -8.26 0zM259.66 280.44L258.77 278.29L243.4 284.65L244.29 286.81zM239.71 285.73 a4.13 4.13 0 1 0 8.26 0 a4.13 4.13 0 1 0 -8.26 0zM255.83 263.51L255.83 261.18L248.17 261.18L248.17 263.51zM244.04 262.34 a4.13 4.13 0 1 0 8.26 0 a4.13 4.13 0 1 0 -8.26 0zM258.77 246.4L259.66 244.24L252.97 241.47L252.07 243.62zM248.39 242.54 a4.13 4.13 0 1 0 8.26 0 a4.13 4.13 0 1 0 -8.26 0zM268.04 231.71L269.68 230.06L263.64 224.03L262 225.67zM258.69 224.85 a4.13 4.13 0 1 0 8.26 0 a4.13 4.13 0 1 0 -8.26 0zM282.21 221.69L284.37 220.8L280.79 212.16L278.64 213.05zM275.58 212.61 a4.13 4.13 0 1 0 8.26 0 a4.13 4.13 0 1 0 -8.26 0zM299.15 217.86L301.48 217.86L301.48 197.66L299.15 197.66zM296.18 197.66 a4.13 4.13 0 1 0 8.26 0 a4.13 4.13 0 1 0 -8.26 0zM316.26 220.8L318.41 221.69L321.95 213.16L319.79 212.26zM316.74 212.71 a4.13 4.13 0 1 0 8.26 0 a4.13 4.13 0 1 0 -8.26 0zM330.94 230.06L332.59 231.71L336.7 227.6L335.06 225.95zM331.75 226.77 a4.13 4.13 0 1 0 8.26 0 a4.13 4.13 0 1 0 -8.26 0zM340.96 244.24L341.85 246.4L357.51 239.91L356.62 237.76zM352.94 238.83 a4.13 4.13 0 1 0 8.26 0 a4.13 4.13 0 1 0 -8.26 0zM255.81 262.34 a44.5 44.5 0 1 0 89 0 a44.5 44.5 0 1 0 -89 0z" fill="#488fdb"></path><path d="M286.97 304.79 A43.496 43.496 0 0 1 270.15 229.62M270.15 229.62 A88.992 88.992 0 0 0 286.97 304.79" fill="#2672c3" fill-rule="nonzero"></path><path d="M274.24 288.34 a8.9 8.9 0 1 0 17.8 0 a8.9 8.9 0 1 0 -17.8 0zM305.06 238.15 a8.9 8.9 0 1 0 17.8 0 a8.9 8.9 0 1 0 -17.8 0zM291.22 262.3 a8.9 8.9 0 1 0 17.8 0 a8.9 8.9 0 1 0 -17.8 0zM274.52 231.12 a8.9 8.9 0 1 0 17.8 0 a8.9 8.9 0 1 0 -17.8 0zM313.42 276.63 a7.12 7.12 0 1 0 14.24 0 a7.12 7.12 0 1 0 -14.24 0zM269.74 261.96 a6.23 6.23 0 1 0 12.46 0 a6.23 6.23 0 1 0 -12.46 0zM328.67 249.31 a2.22 2.22 0 1 0 4.44 0 a2.22 2.22 0 1 0 -4.44 0zM336.75 276.68 a2.67 2.67 0 1 0 5.34 0 a2.67 2.67 0 1 0 -5.34 0zM306.17 298.46 a6.23 6.23 0 1 0 12.46 0 a6.23 6.23 0 1 0 -12.46 0zM260.68 243.4 a4 4 0 1 0 8 0 a4 4 0 1 0 -8 0z" fill="#2672c3" fill-rule="nonzero"></path><path d="M761.36 402.74L761.36 405.07L771.95 405.07L771.95 402.74zM767.82 403.9 a4.13 4.13 0 1 0 8.26 0 a4.13 4.13 0 1 0 -8.26 0zM758.42 419.85L757.53 422L770.51 427.38L771.4 425.23zM766.83 426.3 a4.13 4.13 0 1 0 8.26 0 a4.13 4.13 0 1 0 -8.26 0zM749.16 434.53L747.51 436.18L757.46 446.13L759.11 444.48zM754.15 445.31 a4.13 4.13 0 1 0 8.26 0 a4.13 4.13 0 1 0 -8.26 0zM734.98 444.55L732.83 445.44L736.23 453.67L738.39 452.78zM733.18 453.22 a4.13 4.13 0 1 0 8.26 0 a4.13 4.13 0 1 0 -8.26 0zM718.05 448.38L715.72 448.38L715.72 459.93L718.05 459.93zM712.75 459.93 a4.13 4.13 0 1 0 8.26 0 a4.13 4.13 0 1 0 -8.26 0zM700.94 445.44L698.78 444.55L693.39 457.58L695.54 458.47zM690.34 458.03 a4.13 4.13 0 1 0 8.26 0 a4.13 4.13 0 1 0 -8.26 0zM686.25 436.18L684.61 434.53L676.54 442.6L678.19 444.25zM673.23 443.42 a4.13 4.13 0 1 0 8.26 0 a4.13 4.13 0 1 0 -8.26 0zM676.23 422L675.34 419.85L659.25 426.52L660.14 428.67zM655.56 427.59 a4.13 4.13 0 1 0 8.26 0 a4.13 4.13 0 1 0 -8.26 0zM672.4 405.07L672.4 402.74L654.86 402.74L654.86 405.07zM650.73 403.9 a4.13 4.13 0 1 0 8.26 0 a4.13 4.13 0 1 0 -8.26 0zM675.34 387.96L676.23 385.81L669.79 383.14L668.9 385.29zM665.22 384.21 a4.13 4.13 0 1 0 8.26 0 a4.13 4.13 0 1 0 -8.26 0zM684.61 373.27L686.25 371.63L679.42 364.8L677.78 366.44zM674.47 365.62 a4.13 4.13 0 1 0 8.26 0 a4.13 4.13 0 1 0 -8.26 0zM698.78 363.25L700.94 362.36L694.01 345.64L691.86 346.53zM688.8 346.09 a4.13 4.13 0 1 0 8.26 0 a4.13 4.13 0 1 0 -8.26 0zM715.72 359.42L718.05 359.42L718.05 342.15L715.72 342.15zM712.75 342.15 a4.13 4.13 0 1 0 8.26 0 a4.13 4.13 0 1 0 -8.26 0zM732.83 362.36L734.98 363.25L740.5 349.92L738.35 349.03zM735.3 349.48 a4.13 4.13 0 1 0 8.26 0 a4.13 4.13 0 1 0 -8.26 0zM747.51 371.63L749.16 373.27L754.43 368.01L752.78 366.36zM749.47 367.18 a4.13 4.13 0 1 0 8.26 0 a4.13 4.13 0 1 0 -8.26 0zM757.53 385.81L758.42 387.96L776.2 380.6L775.31 378.44zM771.62 379.52 a4.13 4.13 0 1 0 8.26 0 a4.13 4.13 0 1 0 -8.26 0zM672.38 403.9 a44.5 44.5 0 1 0 89 0 a44.5 44.5 0 1 0 -89 0z" fill="#488fdb"></path><path d="M757.78 421.43 A43.496 43.496 0 0 1 681.31 430.64M681.31 430.64 A88.992 88.992 0 0 0 757.78 421.43" fill="#2672c3" fill-rule="nonzero"></path><path d="M735.81 439.67 a2.67 2.67 0 1 0 5.34 0 a2.67 2.67 0 1 0 -5.34 0zM673.2 409.81 a8.01 8.01 0 1 0 16.02 0 a8.01 8.01 0 1 0 -16.02 0zM712.41 430.09 a8.45 8.45 0 1 0 16.9 0 a8.45 8.45 0 1 0 -16.9 0zM690.27 385.54 a8.9 8.9 0 1 0 17.8 0 a8.9 8.9 0 1 0 -17.8 0zM727.45 399.69 a8.9 8.9 0 1 0 17.8 0 a8.9 8.9 0 1 0 -17.8 0zM725.68 373.88 a8.01 8.01 0 1 0 16.02 0 a8.01 8.01 0 1 0 -16.02 0zM683.23 429.64 a3.56 3.56 0 1 0 7.12 0 a3.56 3.56 0 1 0 -7.12 0zM716.88 387.87 a2.67 2.67 0 1 0 5.34 0 a2.67 2.67 0 1 0 -5.34 0zM737.39 423.65 a4.45 4.45 0 1 0 8.9 0 a4.45 4.45 0 1 0 -8.9 0zM704.8 411.19 a4.45 4.45 0 1 0 8.9 0 a4.45 4.45 0 1 0 -8.9 0z" fill="#2672c3" fill-rule="nonzero"></path><path d="M1270.29 59L1270.29 60.86L1276.52 60.86L1276.52 59zM1273.22 59.93 a3.3 3.3 0 1 0 6.6 0 a3.3 3.3 0 1 0 -6.6 0zM1267.93 72.69L1267.22 74.41L1280.87 80.06L1281.59 78.34zM1277.93 79.2 a3.3 3.3 0 1 0 6.6 0 a3.3 3.3 0 1 0 -6.6 0zM1260.52 84.43L1259.2 85.75L1265.44 91.99L1266.76 90.67zM1262.8 91.33 a3.3 3.3 0 1 0 6.6 0 a3.3 3.3 0 1 0 -6.6 0zM1249.18 92.45L1247.46 93.16L1251.97 104.06L1253.69 103.35zM1249.53 103.71 a3.3 3.3 0 1 0 6.6 0 a3.3 3.3 0 1 0 -6.6 0zM1235.63 95.51L1233.77 95.51L1233.77 112.75L1235.63 112.75zM1231.4 112.75 a3.3 3.3 0 1 0 6.6 0 a3.3 3.3 0 1 0 -6.6 0zM1221.94 93.16L1220.22 92.45L1215 105.06L1216.72 105.77zM1212.56 105.42 a3.3 3.3 0 1 0 6.6 0 a3.3 3.3 0 1 0 -6.6 0zM1210.2 85.75L1208.88 84.43L1202.67 90.64L1203.99 91.96zM1200.03 91.3 a3.3 3.3 0 1 0 6.6 0 a3.3 3.3 0 1 0 -6.6 0zM1202.18 74.41L1201.47 72.69L1191.82 76.68L1192.54 78.4zM1188.88 77.54 a3.3 3.3 0 1 0 6.6 0 a3.3 3.3 0 1 0 -6.6 0zM1199.12 60.86L1199.12 59L1190.81 59L1190.81 60.86zM1187.51 59.93 a3.3 3.3 0 1 0 6.6 0 a3.3 3.3 0 1 0 -6.6 0zM1201.47 47.17L1202.18 45.45L1195.97 42.88L1195.26 44.6zM1192.32 43.74 a3.3 3.3 0 1 0 6.6 0 a3.3 3.3 0 1 0 -6.6 0zM1208.88 35.43L1210.2 34.11L1201.9 25.81L1200.59 27.13zM1197.94 26.47 a3.3 3.3 0 1 0 6.6 0 a3.3 3.3 0 1 0 -6.6 0zM1220.22 27.41L1221.94 26.7L1216.85 14.41L1215.13 15.12zM1212.69 14.77 a3.3 3.3 0 1 0 6.6 0 a3.3 3.3 0 1 0 -6.6 0zM1233.77 24.34L1235.63 24.34L1235.63 10.5L1233.77 10.5zM1231.4 10.5 a3.3 3.3 0 1 0 6.6 0 a3.3 3.3 0 1 0 -6.6 0zM1247.46 26.7L1249.18 27.41L1252.25 20L1250.53 19.29zM1248.09 19.64 a3.3 3.3 0 1 0 6.6 0 a3.3 3.3 0 1 0 -6.6 0zM1259.2 34.11L1260.52 35.43L1266.44 29.51L1265.12 28.19zM1262.48 28.85 a3.3 3.3 0 1 0 6.6 0 a3.3 3.3 0 1 0 -6.6 0zM1267.22 45.45L1267.93 47.17L1278.37 42.85L1277.66 41.13zM1274.72 41.99 a3.3 3.3 0 1 0 6.6 0 a3.3 3.3 0 1 0 -6.6 0zM1199.1 59.93 a35.6 35.6 0 1 0 71.2 0 a35.6 35.6 0 1 0 -71.2 0z" fill="#488fdb"></path><path d="M1240.47 95.06 A34.5968 34.5968 0 0 1 1201.37 47.43M1201.37 47.43 A71.1936 71.1936 0 0 0 1240.47 95.06" fill="#2672c3" fill-rule="nonzero"></path><path d="M1232.13 80.85 a7.12 7.12 0 1 0 14.24 0 a7.12 7.12 0 1 0 -14.24 0zM1206.41 75.57 a7.12 7.12 0 1 0 14.24 0 a7.12 7.12 0 1 0 -14.24 0zM1231.95 48.19 a7.12 7.12 0 1 0 14.24 0 a7.12 7.12 0 1 0 -14.24 0zM1204.02 46.52 a7.12 7.12 0 1 0 14.24 0 a7.12 7.12 0 1 0 -14.24 0zM1242.49 32.11 a2.85 2.85 0 1 0 5.7 0 a2.85 2.85 0 1 0 -5.7 0zM1228.64 27.37 a2.85 2.85 0 1 0 5.7 0 a2.85 2.85 0 1 0 -5.7 0zM1252.05 55.45 a3.92 3.92 0 1 0 7.84 0 a3.92 3.92 0 1 0 -7.84 0zM1199.55 63.42 a1.42 1.42 0 1 0 2.84 0 a1.42 1.42 0 1 0 -2.84 0zM1264.34 47.49 a1.78 1.78 0 1 0 3.56 0 a1.78 1.78 0 1 0 -3.56 0zM1224.61 60.37 a2.49 2.49 0 1 0 4.98 0 a2.49 2.49 0 1 0 -4.98 0z" fill="#2672c3" fill-rule="nonzero"></path></g><defs><mask id="SvgjsMask1000"><rect width="1440" height="560" fill="#ffffff"></rect></mask></defs></svg>