<svg xmlns="http://www.w3.org/2000/svg" version="1.1" xmlns:xlink="http://www.w3.org/1999/xlink" xmlns:svgjs="http://svgjs.com/svgjs" width="1440" height="560" preserveAspectRatio="none" viewBox="0 0 1440 560"><g mask="url(&quot;#SvgjsMask1000&quot;)" fill="none"><rect width="1440" height="560" x="0" y="0" fill="#0e2a47"></rect><path d="M -69.63655306329036,482 C 26.36,417.4 218.36,175.8 410.36344693670964,159 C 602.36,142.2 698.36,397.2 890.3634469367096,398 C 1082.36,398.8 1178.36,154 1370.3634469367096,163 C 1562.36,172 1836.44,430 1850.3634469367096,443 C 1864.29,456 1522.07,271 1440,228" stroke="rgba(51, 121, 194, 0.58)" stroke-width="2"></path><path d="M -96.62386073841685,102 C -0.62,159.6 191.38,390.4 383.37613926158315,390 C 575.38,389.6 671.38,82.8 863.3761392615831,100 C 1055.38,117.2 1151.38,469.4 1343.3761392615831,476 C 1535.38,482.6 1804.05,140.4 1823.3761392615831,133 C 1842.7,125.6 1516.68,377.8 1440,439" stroke="rgba(51, 121, 194, 0.58)" stroke-width="2"></path><path d="M -421.52739385457335,362 C -325.53,307.2 -133.53,60.8 58.47260614542666,88 C 250.47,115.2 346.47,483.6 538.4726061454267,498 C 730.47,512.4 826.47,197.2 1018.4726061454267,160 C 1210.47,122.8 1414.17,293.6 1498.4726061454267,312 C 1582.78,330.4 1451.69,264 1440,252" stroke="rgba(51, 121, 194, 0.58)" stroke-width="2"></path><path d="M -884.8912770710084,139 C -788.89,194.8 -596.89,426.2 -404.8912770710084,418 C -212.89,409.8 -116.89,83 75.1087229289916,98 C 267.11,113 363.11,481.8 555.1087229289916,493 C 747.11,504.2 858.13,189.4 1035.1087229289915,154 C 1212.09,118.6 1359.02,283.6 1440,316" stroke="rgba(51, 121, 194, 0.58)" stroke-width="2"></path></g><defs><mask id="SvgjsMask1000"><rect width="1440" height="560" fill="#ffffff"></rect></mask></defs></svg>