<svg xmlns="http://www.w3.org/2000/svg" version="1.1" xmlns:xlink="http://www.w3.org/1999/xlink" xmlns:svgjs="http://svgjs.com/svgjs" width="1440" height="560" preserveAspectRatio="none" viewBox="0 0 1440 560"><g mask="url(&quot;#SvgjsMask1014&quot;)" fill="none"><rect width="1440" height="560" x="0" y="0" fill="url(#SvgjsLinearGradient1015)"></rect><path d="M-94.93 373.8L-94.93 373.8" stroke="rgba(53, 180, 101, 1)" stroke-width="1.5"></path><path d="M-94.93 373.8L42.11 366.3" stroke="rgba(53, 180, 101, 1)" stroke-width="1.5"></path><path d="M-94.93 373.8L-61.98 560.65" stroke="rgba(53, 180, 101, 1)" stroke-width="1.5"></path><path d="M-94.93 373.8L64.38 489.19" stroke="rgba(53, 180, 101, 1)" stroke-width="1.5"></path><path d="M-94.93 373.8L-46.31 662.66" stroke="rgba(53, 180, 101, 1)" stroke-width="1.5"></path><path d="M-61.98 560.65L-61.98 560.65" stroke="rgba(53, 180, 101, 1)" stroke-width="1.5"></path><path d="M-61.98 560.65L-46.31 662.66" stroke="rgba(53, 180, 101, 1)" stroke-width="1.5"></path><path d="M-61.98 560.65L64.38 489.19" stroke="rgba(53, 180, 101, 1)" stroke-width="1.5"></path><path d="M-61.98 560.65L92.82 698.26" stroke="rgba(53, 180, 101, 1)" stroke-width="1.5"></path><path d="M-61.98 560.65L42.11 366.3" stroke="rgba(53, 180, 101, 1)" stroke-width="1.5"></path><path d="M-46.31 662.66L-46.31 662.66" stroke="rgba(53, 180, 101, 1)" stroke-width="1.5"></path><path d="M-46.31 662.66L92.82 698.26" stroke="rgba(53, 180, 101, 1)" stroke-width="1.5"></path><path d="M-46.31 662.66L64.38 489.19" stroke="rgba(53, 180, 101, 1)" stroke-width="1.5"></path><path d="M-46.31 662.66L195.99 676.79" stroke="rgba(53, 180, 101, 1)" stroke-width="1.5"></path><path d="M-46.31 662.66L192.53 561.77" stroke="rgba(53, 180, 101, 1)" stroke-width="1.5"></path><path d="M42.11 366.3L42.11 366.3" stroke="rgba(53, 180, 101, 1)" stroke-width="1.5"></path><path d="M42.11 366.3L64.38 489.19" stroke="rgba(53, 180, 101, 1)" stroke-width="1.5"></path><path d="M42.11 366.3L253.81 403.08" stroke="rgba(53, 180, 101, 1)" stroke-width="1.5"></path><path d="M64.38 489.19L64.38 489.19" stroke="rgba(53, 180, 101, 1)" stroke-width="1.5"></path><path d="M92.82 698.26L92.82 698.26" stroke="rgba(53, 180, 101, 1)" stroke-width="1.5"></path><path d="M92.82 698.26L195.99 676.79" stroke="rgba(53, 180, 101, 1)" stroke-width="1.5"></path><path d="M92.82 698.26L192.53 561.77" stroke="rgba(53, 180, 101, 1)" stroke-width="1.5"></path><path d="M92.82 698.26L64.38 489.19" stroke="rgba(53, 180, 101, 1)" stroke-width="1.5"></path><path d="M253.81 403.08L253.81 403.08" stroke="rgba(53, 180, 101, 1)" stroke-width="1.5"></path><path d="M253.81 403.08L410.9 386.56" stroke="rgba(53, 180, 101, 1)" stroke-width="1.5"></path><path d="M253.81 403.08L192.53 561.77" stroke="rgba(53, 180, 101, 1)" stroke-width="1.5"></path><path d="M253.81 403.08L384.8 538.84" stroke="rgba(53, 180, 101, 1)" stroke-width="1.5"></path><path d="M192.53 561.77L192.53 561.77" stroke="rgba(53, 180, 101, 1)" stroke-width="1.5"></path><path d="M192.53 561.77L195.99 676.79" stroke="rgba(53, 180, 101, 1)" stroke-width="1.5"></path><path d="M192.53 561.77L64.38 489.19" stroke="rgba(53, 180, 101, 1)" stroke-width="1.5"></path><path d="M195.99 676.79L195.99 676.79" stroke="rgba(53, 180, 101, 1)" stroke-width="1.5"></path><path d="M195.99 676.79L387.91 650.35" stroke="rgba(53, 180, 101, 1)" stroke-width="1.5"></path><path d="M410.9 386.56L410.9 386.56" stroke="rgba(53, 180, 101, 1)" stroke-width="1.5"></path><path d="M410.9 386.56L505.84 382.07" stroke="rgba(53, 180, 101, 1)" stroke-width="1.5"></path><path d="M410.9 386.56L384.8 538.84" stroke="rgba(53, 180, 101, 1)" stroke-width="1.5"></path><path d="M384.8 538.84L384.8 538.84" stroke="rgba(53, 180, 101, 1)" stroke-width="1.5"></path><path d="M384.8 538.84L387.91 650.35" stroke="rgba(53, 180, 101, 1)" stroke-width="1.5"></path><path d="M384.8 538.84L513.92 531.31" stroke="rgba(53, 180, 101, 1)" stroke-width="1.5"></path><path d="M384.8 538.84L192.53 561.77" stroke="rgba(53, 180, 101, 1)" stroke-width="1.5"></path><path d="M384.8 538.84L505.84 382.07" stroke="rgba(53, 180, 101, 1)" stroke-width="1.5"></path><path d="M387.91 650.35L387.91 650.35" stroke="rgba(53, 180, 101, 1)" stroke-width="1.5"></path><path d="M387.91 650.35L513.92 531.31" stroke="rgba(53, 180, 101, 1)" stroke-width="1.5"></path><path d="M387.91 650.35L192.53 561.77" stroke="rgba(53, 180, 101, 1)" stroke-width="1.5"></path><path d="M387.91 650.35L410.9 386.56" stroke="rgba(53, 180, 101, 1)" stroke-width="1.5"></path><path d="M387.91 650.35L253.81 403.08" stroke="rgba(53, 180, 101, 1)" stroke-width="1.5"></path><path d="M505.84 382.07L505.84 382.07" stroke="rgba(53, 180, 101, 1)" stroke-width="1.5"></path><path d="M505.84 382.07L513.92 531.31" stroke="rgba(53, 180, 101, 1)" stroke-width="1.5"></path><path d="M513.92 531.31L513.92 531.31" stroke="rgba(53, 180, 101, 1)" stroke-width="1.5"></path><path d="M513.92 531.31L647.91 497.9" stroke="rgba(53, 180, 101, 1)" stroke-width="1.5"></path><path d="M683.87 406.94L683.87 406.94" stroke="rgba(53, 180, 101, 1)" stroke-width="1.5"></path><path d="M683.87 406.94L647.91 497.9" stroke="rgba(53, 180, 101, 1)" stroke-width="1.5"></path><path d="M683.87 406.94L839.04 356.36" stroke="rgba(53, 180, 101, 1)" stroke-width="1.5"></path><path d="M683.87 406.94L505.84 382.07" stroke="rgba(53, 180, 101, 1)" stroke-width="1.5"></path><path d="M683.87 406.94L513.92 531.31" stroke="rgba(53, 180, 101, 1)" stroke-width="1.5"></path><path d="M647.91 497.9L647.91 497.9" stroke="rgba(53, 180, 101, 1)" stroke-width="1.5"></path><path d="M647.91 497.9L505.84 382.07" stroke="rgba(53, 180, 101, 1)" stroke-width="1.5"></path><path d="M699.36 677.23L699.36 677.23" stroke="rgba(53, 180, 101, 1)" stroke-width="1.5"></path><path d="M699.36 677.23L647.91 497.9" stroke="rgba(53, 180, 101, 1)" stroke-width="1.5"></path><path d="M699.36 677.23L842.67 546.23" stroke="rgba(53, 180, 101, 1)" stroke-width="1.5"></path><path d="M699.36 677.23L513.92 531.31" stroke="rgba(53, 180, 101, 1)" stroke-width="1.5"></path><path d="M699.36 677.23L683.87 406.94" stroke="rgba(53, 180, 101, 1)" stroke-width="1.5"></path><path d="M699.36 677.23L978.27 647.39" stroke="rgba(53, 180, 101, 1)" stroke-width="1.5"></path><path d="M699.36 677.23L387.91 650.35" stroke="rgba(53, 180, 101, 1)" stroke-width="1.5"></path><path d="M841.02 259.07L841.02 259.07" stroke="rgba(53, 180, 101, 1)" stroke-width="1.5"></path><path d="M841.02 259.07L839.04 356.36" stroke="rgba(53, 180, 101, 1)" stroke-width="1.5"></path><path d="M841.02 259.07L976.46 258.49" stroke="rgba(53, 180, 101, 1)" stroke-width="1.5"></path><path d="M841.02 259.07L946.12 387.26" stroke="rgba(53, 180, 101, 1)" stroke-width="1.5"></path><path d="M841.02 259.07L683.87 406.94" stroke="rgba(53, 180, 101, 1)" stroke-width="1.5"></path><path d="M839.04 356.36L839.04 356.36" stroke="rgba(53, 180, 101, 1)" stroke-width="1.5"></path><path d="M839.04 356.36L946.12 387.26" stroke="rgba(53, 180, 101, 1)" stroke-width="1.5"></path><path d="M842.67 546.23L842.67 546.23" stroke="rgba(53, 180, 101, 1)" stroke-width="1.5"></path><path d="M842.67 546.23L972.37 518.68" stroke="rgba(53, 180, 101, 1)" stroke-width="1.5"></path><path d="M842.67 546.23L978.27 647.39" stroke="rgba(53, 180, 101, 1)" stroke-width="1.5"></path><path d="M842.67 546.23L946.12 387.26" stroke="rgba(53, 180, 101, 1)" stroke-width="1.5"></path><path d="M842.67 546.23L839.04 356.36" stroke="rgba(53, 180, 101, 1)" stroke-width="1.5"></path><path d="M959.2 -45.01L959.2 -45.01" stroke="rgba(53, 180, 101, 1)" stroke-width="1.5"></path><path d="M959.2 -45.01L993.6 49.37" stroke="rgba(53, 180, 101, 1)" stroke-width="1.5"></path><path d="M959.2 -45.01L1116.35 -104.04" stroke="rgba(53, 180, 101, 1)" stroke-width="1.5"></path><path d="M993.6 49.37L993.6 49.37" stroke="rgba(53, 180, 101, 1)" stroke-width="1.5"></path><path d="M993.6 49.37L1122.44 103.23" stroke="rgba(53, 180, 101, 1)" stroke-width="1.5"></path><path d="M993.6 49.37L1095.27 211.4" stroke="rgba(53, 180, 101, 1)" stroke-width="1.5"></path><path d="M993.6 49.37L1116.35 -104.04" stroke="rgba(53, 180, 101, 1)" stroke-width="1.5"></path><path d="M976.46 258.49L976.46 258.49" stroke="rgba(53, 180, 101, 1)" stroke-width="1.5"></path><path d="M976.46 258.49L1095.27 211.4" stroke="rgba(53, 180, 101, 1)" stroke-width="1.5"></path><path d="M976.46 258.49L946.12 387.26" stroke="rgba(53, 180, 101, 1)" stroke-width="1.5"></path><path d="M976.46 258.49L1104.16 343.58" stroke="rgba(53, 180, 101, 1)" stroke-width="1.5"></path><path d="M946.12 387.26L946.12 387.26" stroke="rgba(53, 180, 101, 1)" stroke-width="1.5"></path><path d="M946.12 387.26L972.37 518.68" stroke="rgba(53, 180, 101, 1)" stroke-width="1.5"></path><path d="M946.12 387.26L1104.16 343.58" stroke="rgba(53, 180, 101, 1)" stroke-width="1.5"></path><path d="M972.37 518.68L972.37 518.68" stroke="rgba(53, 180, 101, 1)" stroke-width="1.5"></path><path d="M972.37 518.68L978.27 647.39" stroke="rgba(53, 180, 101, 1)" stroke-width="1.5"></path><path d="M972.37 518.68L1143.57 549.41" stroke="rgba(53, 180, 101, 1)" stroke-width="1.5"></path><path d="M978.27 647.39L978.27 647.39" stroke="rgba(53, 180, 101, 1)" stroke-width="1.5"></path><path d="M978.27 647.39L1159.48 702.86" stroke="rgba(53, 180, 101, 1)" stroke-width="1.5"></path><path d="M978.27 647.39L1143.57 549.41" stroke="rgba(53, 180, 101, 1)" stroke-width="1.5"></path><path d="M978.27 647.39L946.12 387.26" stroke="rgba(53, 180, 101, 1)" stroke-width="1.5"></path><path d="M978.27 647.39L1251.7 670.88" stroke="rgba(53, 180, 101, 1)" stroke-width="1.5"></path><path d="M1116.35 -104.04L1116.35 -104.04" stroke="rgba(53, 180, 101, 1)" stroke-width="1.5"></path><path d="M1116.35 -104.04L1307.06 -93.23" stroke="rgba(53, 180, 101, 1)" stroke-width="1.5"></path><path d="M1116.35 -104.04L1122.44 103.23" stroke="rgba(53, 180, 101, 1)" stroke-width="1.5"></path><path d="M1122.44 103.23L1122.44 103.23" stroke="rgba(53, 180, 101, 1)" stroke-width="1.5"></path><path d="M1122.44 103.23L1095.27 211.4" stroke="rgba(53, 180, 101, 1)" stroke-width="1.5"></path><path d="M1122.44 103.23L1243.84 104.59" stroke="rgba(53, 180, 101, 1)" stroke-width="1.5"></path><path d="M1122.44 103.23L1240.21 258.18" stroke="rgba(53, 180, 101, 1)" stroke-width="1.5"></path><path d="M1095.27 211.4L1095.27 211.4" stroke="rgba(53, 180, 101, 1)" stroke-width="1.5"></path><path d="M1104.16 343.58L1104.16 343.58" stroke="rgba(53, 180, 101, 1)" stroke-width="1.5"></path><path d="M1104.16 343.58L1095.27 211.4" stroke="rgba(53, 180, 101, 1)" stroke-width="1.5"></path><path d="M1104.16 343.58L1240.21 258.18" stroke="rgba(53, 180, 101, 1)" stroke-width="1.5"></path><path d="M1143.57 549.41L1143.57 549.41" stroke="rgba(53, 180, 101, 1)" stroke-width="1.5"></path><path d="M1143.57 549.41L1289.42 513.11" stroke="rgba(53, 180, 101, 1)" stroke-width="1.5"></path><path d="M1143.57 549.41L1159.48 702.86" stroke="rgba(53, 180, 101, 1)" stroke-width="1.5"></path><path d="M1143.57 549.41L1251.7 670.88" stroke="rgba(53, 180, 101, 1)" stroke-width="1.5"></path><path d="M1159.48 702.86L1159.48 702.86" stroke="rgba(53, 180, 101, 1)" stroke-width="1.5"></path><path d="M1159.48 702.86L1251.7 670.88" stroke="rgba(53, 180, 101, 1)" stroke-width="1.5"></path><path d="M1159.48 702.86L1289.42 513.11" stroke="rgba(53, 180, 101, 1)" stroke-width="1.5"></path><path d="M1159.48 702.86L972.37 518.68" stroke="rgba(53, 180, 101, 1)" stroke-width="1.5"></path><path d="M1159.48 702.86L1461.28 648.87" stroke="rgba(53, 180, 101, 1)" stroke-width="1.5"></path><path d="M1307.06 -93.23L1307.06 -93.23" stroke="rgba(53, 180, 101, 1)" stroke-width="1.5"></path><path d="M1307.06 -93.23L1460.44 -83.27" stroke="rgba(53, 180, 101, 1)" stroke-width="1.5"></path><path d="M1307.06 -93.23L1387.51 60.96" stroke="rgba(53, 180, 101, 1)" stroke-width="1.5"></path><path d="M1307.06 -93.23L1243.84 104.59" stroke="rgba(53, 180, 101, 1)" stroke-width="1.5"></path><path d="M1307.06 -93.23L1122.44 103.23" stroke="rgba(53, 180, 101, 1)" stroke-width="1.5"></path><path d="M1307.06 -93.23L1570.26 105.82" stroke="rgba(53, 180, 101, 1)" stroke-width="1.5"></path><path d="M1243.84 104.59L1243.84 104.59" stroke="rgba(53, 180, 101, 1)" stroke-width="1.5"></path><path d="M1243.84 104.59L1387.51 60.96" stroke="rgba(53, 180, 101, 1)" stroke-width="1.5"></path><path d="M1243.84 104.59L1240.21 258.18" stroke="rgba(53, 180, 101, 1)" stroke-width="1.5"></path><path d="M1243.84 104.59L1095.27 211.4" stroke="rgba(53, 180, 101, 1)" stroke-width="1.5"></path><path d="M1243.84 104.59L1116.35 -104.04" stroke="rgba(53, 180, 101, 1)" stroke-width="1.5"></path><path d="M1240.21 258.18L1240.21 258.18" stroke="rgba(53, 180, 101, 1)" stroke-width="1.5"></path><path d="M1240.21 258.18L1295.06 364.97" stroke="rgba(53, 180, 101, 1)" stroke-width="1.5"></path><path d="M1240.21 258.18L1095.27 211.4" stroke="rgba(53, 180, 101, 1)" stroke-width="1.5"></path><path d="M1295.06 364.97L1295.06 364.97" stroke="rgba(53, 180, 101, 1)" stroke-width="1.5"></path><path d="M1295.06 364.97L1289.42 513.11" stroke="rgba(53, 180, 101, 1)" stroke-width="1.5"></path><path d="M1295.06 364.97L1104.16 343.58" stroke="rgba(53, 180, 101, 1)" stroke-width="1.5"></path><path d="M1295.06 364.97L1143.57 549.41" stroke="rgba(53, 180, 101, 1)" stroke-width="1.5"></path><path d="M1295.06 364.97L1449.3 555.99" stroke="rgba(53, 180, 101, 1)" stroke-width="1.5"></path><path d="M1295.06 364.97L1095.27 211.4" stroke="rgba(53, 180, 101, 1)" stroke-width="1.5"></path><path d="M1289.42 513.11L1289.42 513.11" stroke="rgba(53, 180, 101, 1)" stroke-width="1.5"></path><path d="M1251.7 670.88L1251.7 670.88" stroke="rgba(53, 180, 101, 1)" stroke-width="1.5"></path><path d="M1251.7 670.88L1289.42 513.11" stroke="rgba(53, 180, 101, 1)" stroke-width="1.5"></path><path d="M1460.44 -83.27L1460.44 -83.27" stroke="rgba(53, 180, 101, 1)" stroke-width="1.5"></path><path d="M1460.44 -83.27L1387.51 60.96" stroke="rgba(53, 180, 101, 1)" stroke-width="1.5"></path><path d="M1460.44 -83.27L1570.26 105.82" stroke="rgba(53, 180, 101, 1)" stroke-width="1.5"></path><path d="M1387.51 60.96L1387.51 60.96" stroke="rgba(53, 180, 101, 1)" stroke-width="1.5"></path><path d="M1387.51 60.96L1570.26 105.82" stroke="rgba(53, 180, 101, 1)" stroke-width="1.5"></path><path d="M1387.51 60.96L1580.77 199.71" stroke="rgba(53, 180, 101, 1)" stroke-width="1.5"></path><path d="M1387.51 60.96L1240.21 258.18" stroke="rgba(53, 180, 101, 1)" stroke-width="1.5"></path><path d="M1449.3 555.99L1449.3 555.99" stroke="rgba(53, 180, 101, 1)" stroke-width="1.5"></path><path d="M1449.3 555.99L1461.28 648.87" stroke="rgba(53, 180, 101, 1)" stroke-width="1.5"></path><path d="M1449.3 555.99L1606.28 535.32" stroke="rgba(53, 180, 101, 1)" stroke-width="1.5"></path><path d="M1461.28 648.87L1461.28 648.87" stroke="rgba(53, 180, 101, 1)" stroke-width="1.5"></path><path d="M1461.28 648.87L1554.39 678.65" stroke="rgba(53, 180, 101, 1)" stroke-width="1.5"></path><path d="M1461.28 648.87L1606.28 535.32" stroke="rgba(53, 180, 101, 1)" stroke-width="1.5"></path><path d="M1461.28 648.87L1251.7 670.88" stroke="rgba(53, 180, 101, 1)" stroke-width="1.5"></path><path d="M1461.28 648.87L1289.42 513.11" stroke="rgba(53, 180, 101, 1)" stroke-width="1.5"></path><path d="M1570.26 105.82L1570.26 105.82" stroke="rgba(53, 180, 101, 1)" stroke-width="1.5"></path><path d="M1570.26 105.82L1580.77 199.71" stroke="rgba(53, 180, 101, 1)" stroke-width="1.5"></path><path d="M1580.77 199.71L1580.77 199.71" stroke="rgba(53, 180, 101, 1)" stroke-width="1.5"></path><path d="M1580.77 199.71L1546.37 388.56" stroke="rgba(53, 180, 101, 1)" stroke-width="1.5"></path><path d="M1580.77 199.71L1460.44 -83.27" stroke="rgba(53, 180, 101, 1)" stroke-width="1.5"></path><path d="M1580.77 199.71L1295.06 364.97" stroke="rgba(53, 180, 101, 1)" stroke-width="1.5"></path><path d="M1546.37 388.56L1546.37 388.56" stroke="rgba(53, 180, 101, 1)" stroke-width="1.5"></path><path d="M1546.37 388.56L1606.28 535.32" stroke="rgba(53, 180, 101, 1)" stroke-width="1.5"></path><path d="M1606.28 535.32L1606.28 535.32" stroke="rgba(53, 180, 101, 1)" stroke-width="1.5"></path><path d="M1606.28 535.32L1554.39 678.65" stroke="rgba(53, 180, 101, 1)" stroke-width="1.5"></path><path d="M1606.28 535.32L1289.42 513.11" stroke="rgba(53, 180, 101, 1)" stroke-width="1.5"></path><path d="M1554.39 678.65L1554.39 678.65" stroke="rgba(53, 180, 101, 1)" stroke-width="1.5"></path><circle r="5" cx="-94.93" cy="373.8" fill="rgba(53, 180, 101, 1)"></circle><circle r="5" cx="-61.98" cy="560.65" fill="rgba(53, 180, 101, 1)"></circle><circle r="5" cx="-46.31" cy="662.66" fill="rgba(53, 180, 101, 1)"></circle><circle r="5" cx="42.11" cy="366.3" fill="rgba(53, 180, 101, 1)"></circle><circle r="5" cx="64.38" cy="489.19" fill="rgba(53, 180, 101, 1)"></circle><circle r="5" cx="92.82" cy="698.26" fill="rgba(53, 180, 101, 1)"></circle><circle r="5" cx="253.81" cy="403.08" fill="rgba(53, 180, 101, 1)"></circle><circle r="5" cx="192.53" cy="561.77" fill="rgba(53, 180, 101, 1)"></circle><circle r="5" cx="195.99" cy="676.79" fill="rgba(53, 180, 101, 1)"></circle><circle r="5" cx="410.9" cy="386.56" fill="rgba(53, 180, 101, 1)"></circle><circle r="5" cx="384.8" cy="538.84" fill="rgba(53, 180, 101, 1)"></circle><circle r="5" cx="387.91" cy="650.35" fill="rgba(53, 180, 101, 1)"></circle><circle r="5" cx="505.84" cy="382.07" fill="rgba(53, 180, 101, 1)"></circle><circle r="5" cx="513.92" cy="531.31" fill="rgba(53, 180, 101, 1)"></circle><circle r="5" cx="683.87" cy="406.94" fill="rgba(53, 180, 101, 1)"></circle><circle r="5" cx="647.91" cy="497.9" fill="rgba(53, 180, 101, 1)"></circle><circle r="5" cx="699.36" cy="677.23" fill="rgba(53, 180, 101, 1)"></circle><circle r="5" cx="841.02" cy="259.07" fill="rgba(53, 180, 101, 1)"></circle><circle r="5" cx="839.04" cy="356.36" fill="rgba(53, 180, 101, 1)"></circle><circle r="5" cx="842.67" cy="546.23" fill="rgba(53, 180, 101, 1)"></circle><circle r="5" cx="959.2" cy="-45.01" fill="rgba(53, 180, 101, 1)"></circle><circle r="5" cx="993.6" cy="49.37" fill="rgba(53, 180, 101, 1)"></circle><circle r="5" cx="976.46" cy="258.49" fill="rgba(53, 180, 101, 1)"></circle><circle r="5" cx="946.12" cy="387.26" fill="rgba(53, 180, 101, 1)"></circle><circle r="5" cx="972.37" cy="518.68" fill="rgba(53, 180, 101, 1)"></circle><circle r="5" cx="978.27" cy="647.39" fill="rgba(53, 180, 101, 1)"></circle><circle r="5" cx="1116.35" cy="-104.04" fill="rgba(53, 180, 101, 1)"></circle><circle r="5" cx="1122.44" cy="103.23" fill="rgba(53, 180, 101, 1)"></circle><circle r="5" cx="1095.27" cy="211.4" fill="rgba(53, 180, 101, 1)"></circle><circle r="5" cx="1104.16" cy="343.58" fill="rgba(53, 180, 101, 1)"></circle><circle r="5" cx="1143.57" cy="549.41" fill="rgba(53, 180, 101, 1)"></circle><circle r="5" cx="1159.48" cy="702.86" fill="rgba(53, 180, 101, 1)"></circle><circle r="5" cx="1307.06" cy="-93.23" fill="rgba(53, 180, 101, 1)"></circle><circle r="5" cx="1243.84" cy="104.59" fill="rgba(53, 180, 101, 1)"></circle><circle r="5" cx="1240.21" cy="258.18" fill="rgba(53, 180, 101, 1)"></circle><circle r="5" cx="1295.06" cy="364.97" fill="rgba(53, 180, 101, 1)"></circle><circle r="5" cx="1289.42" cy="513.11" fill="rgba(53, 180, 101, 1)"></circle><circle r="5" cx="1251.7" cy="670.88" fill="rgba(53, 180, 101, 1)"></circle><circle r="5" cx="1460.44" cy="-83.27" fill="rgba(53, 180, 101, 1)"></circle><circle r="5" cx="1387.51" cy="60.96" fill="rgba(53, 180, 101, 1)"></circle><circle r="5" cx="1449.3" cy="555.99" fill="rgba(53, 180, 101, 1)"></circle><circle r="5" cx="1461.28" cy="648.87" fill="rgba(53, 180, 101, 1)"></circle><circle r="5" cx="1570.26" cy="105.82" fill="rgba(53, 180, 101, 1)"></circle><circle r="5" cx="1580.77" cy="199.71" fill="rgba(53, 180, 101, 1)"></circle><circle r="5" cx="1546.37" cy="388.56" fill="rgba(53, 180, 101, 1)"></circle><circle r="5" cx="1606.28" cy="535.32" fill="rgba(53, 180, 101, 1)"></circle><circle r="5" cx="1554.39" cy="678.65" fill="rgba(53, 180, 101, 1)"></circle><path d="M365.36 552.38L365.36 552.38" stroke="hsl(228.5, 77.2%, 51.5%)" stroke-width="1.5"></path><path d="M365.36 552.38L224.55 558.43" stroke="hsl(228.5, 77.2%, 51.5%)" stroke-width="1.5"></path><path d="M365.36 552.38L514.07 554.04" stroke="hsl(228.5, 77.2%, 51.5%)" stroke-width="1.5"></path><path d="M365.36 552.38L527.96 655.66" stroke="hsl(228.5, 77.2%, 51.5%)" stroke-width="1.5"></path><path d="M365.36 552.38L560.44 397.28" stroke="hsl(228.5, 77.2%, 51.5%)" stroke-width="1.5"></path><path d="M365.36 552.38L97.75 487.76" stroke="hsl(228.5, 77.2%, 51.5%)" stroke-width="1.5"></path><path d="M365.36 552.38L669.08 536.86" stroke="hsl(228.5, 77.2%, 51.5%)" stroke-width="1.5"></path><path d="M998.33 387.24L998.33 387.24" stroke="hsl(228.5, 77.2%, 51.5%)" stroke-width="1.5"></path><path d="M998.33 387.24L1094.38 361.52" stroke="hsl(228.5, 77.2%, 51.5%)" stroke-width="1.5"></path><path d="M998.33 387.24L979.35 255.25" stroke="hsl(228.5, 77.2%, 51.5%)" stroke-width="1.5"></path><path d="M998.33 387.24L1104.4 516.46" stroke="hsl(228.5, 77.2%, 51.5%)" stroke-width="1.5"></path><path d="M998.33 387.24L810.33 400" stroke="hsl(228.5, 77.2%, 51.5%)" stroke-width="1.5"></path><path d="M1303.3 53.83L1303.3 53.83" stroke="hsl(228.5, 77.2%, 51.5%)" stroke-width="1.5"></path><path d="M1303.3 53.83L1417.74 69.83" stroke="hsl(228.5, 77.2%, 51.5%)" stroke-width="1.5"></path><path d="M1303.3 53.83L1389.22 -104.64" stroke="hsl(228.5, 77.2%, 51.5%)" stroke-width="1.5"></path><path d="M1303.3 53.83L1311.09 255.34" stroke="hsl(228.5, 77.2%, 51.5%)" stroke-width="1.5"></path><path d="M1303.3 53.83L1156.62 246.91" stroke="hsl(228.5, 77.2%, 51.5%)" stroke-width="1.5"></path><path d="M1303.3 53.83L1540.73 -83.08" stroke="hsl(228.5, 77.2%, 51.5%)" stroke-width="1.5"></path><path d="M1303.3 53.83L1411.49 362.62" stroke="hsl(228.5, 77.2%, 51.5%)" stroke-width="1.5"></path><path d="M1290.92 673.46L1290.92 673.46" stroke="hsl(228.5, 77.2%, 51.5%)" stroke-width="1.5"></path><path d="M1290.92 673.46L1420.79 671.74" stroke="hsl(228.5, 77.2%, 51.5%)" stroke-width="1.5"></path><path d="M1290.92 673.46L1136.87 684.62" stroke="hsl(228.5, 77.2%, 51.5%)" stroke-width="1.5"></path><path d="M1290.92 673.46L1247.44 500.26" stroke="hsl(228.5, 77.2%, 51.5%)" stroke-width="1.5"></path><path d="M1389.22 -104.64L1389.22 -104.64" stroke="hsl(228.5, 77.2%, 51.5%)" stroke-width="1.5"></path><path d="M1389.22 -104.64L1540.73 -83.08" stroke="hsl(228.5, 77.2%, 51.5%)" stroke-width="1.5"></path><path d="M1389.22 -104.64L1417.74 69.83" stroke="hsl(228.5, 77.2%, 51.5%)" stroke-width="1.5"></path><path d="M1389.22 -104.64L1311.09 255.34" stroke="hsl(228.5, 77.2%, 51.5%)" stroke-width="1.5"></path><path d="M1389.22 -104.64L1579.07 230.88" stroke="hsl(228.5, 77.2%, 51.5%)" stroke-width="1.5"></path><path d="M1389.22 -104.64L1156.62 246.91" stroke="hsl(228.5, 77.2%, 51.5%)" stroke-width="1.5"></path><path d="M1420.79 671.74L1420.79 671.74" stroke="hsl(228.5, 77.2%, 51.5%)" stroke-width="1.5"></path><path d="M1420.79 671.74L1401.75 512.04" stroke="hsl(228.5, 77.2%, 51.5%)" stroke-width="1.5"></path><path d="M1579.07 230.88L1579.07 230.88" stroke="hsl(228.5, 77.2%, 51.5%)" stroke-width="1.5"></path><path d="M1579.07 230.88L1566.75 380.75" stroke="hsl(228.5, 77.2%, 51.5%)" stroke-width="1.5"></path><path d="M1579.07 230.88L1411.49 362.62" stroke="hsl(228.5, 77.2%, 51.5%)" stroke-width="1.5"></path><path d="M1579.07 230.88L1417.74 69.83" stroke="hsl(228.5, 77.2%, 51.5%)" stroke-width="1.5"></path><path d="M1579.07 230.88L1548.84 489.16" stroke="hsl(228.5, 77.2%, 51.5%)" stroke-width="1.5"></path><path d="M1566.75 380.75L1566.75 380.75" stroke="hsl(228.5, 77.2%, 51.5%)" stroke-width="1.5"></path><path d="M1566.75 380.75L1548.84 489.16" stroke="hsl(228.5, 77.2%, 51.5%)" stroke-width="1.5"></path><path d="M1566.75 380.75L1411.49 362.62" stroke="hsl(228.5, 77.2%, 51.5%)" stroke-width="1.5"></path><path d="M-76.64 494.97L-76.64 494.97" stroke="hsl(228.5, 77.2%, 51.5%)" stroke-width="1.5"></path><path d="M-76.64 494.97L97.75 487.76" stroke="hsl(228.5, 77.2%, 51.5%)" stroke-width="1.5"></path><path d="M-76.64 494.97L-39.19 709.47" stroke="hsl(228.5, 77.2%, 51.5%)" stroke-width="1.5"></path><path d="M-76.64 494.97L74.05 706.12" stroke="hsl(228.5, 77.2%, 51.5%)" stroke-width="1.5"></path><path d="M-76.64 494.97L224.55 558.43" stroke="hsl(228.5, 77.2%, 51.5%)" stroke-width="1.5"></path><path d="M-39.19 709.47L-39.19 709.47" stroke="hsl(228.5, 77.2%, 51.5%)" stroke-width="1.5"></path><path d="M-39.19 709.47L74.05 706.12" stroke="hsl(228.5, 77.2%, 51.5%)" stroke-width="1.5"></path><path d="M-39.19 709.47L97.75 487.76" stroke="hsl(228.5, 77.2%, 51.5%)" stroke-width="1.5"></path><path d="M-39.19 709.47L224.55 558.43" stroke="hsl(228.5, 77.2%, 51.5%)" stroke-width="1.5"></path><path d="M-39.19 709.47L365.36 552.38" stroke="hsl(228.5, 77.2%, 51.5%)" stroke-width="1.5"></path><path d="M-39.19 709.47L527.96 655.66" stroke="hsl(228.5, 77.2%, 51.5%)" stroke-width="1.5"></path><path d="M97.75 487.76L97.75 487.76" stroke="hsl(228.5, 77.2%, 51.5%)" stroke-width="1.5"></path><path d="M97.75 487.76L224.55 558.43" stroke="hsl(228.5, 77.2%, 51.5%)" stroke-width="1.5"></path><path d="M97.75 487.76L74.05 706.12" stroke="hsl(228.5, 77.2%, 51.5%)" stroke-width="1.5"></path><path d="M74.05 706.12L74.05 706.12" stroke="hsl(228.5, 77.2%, 51.5%)" stroke-width="1.5"></path><path d="M74.05 706.12L224.55 558.43" stroke="hsl(228.5, 77.2%, 51.5%)" stroke-width="1.5"></path><path d="M74.05 706.12L365.36 552.38" stroke="hsl(228.5, 77.2%, 51.5%)" stroke-width="1.5"></path><path d="M224.55 558.43L224.55 558.43" stroke="hsl(228.5, 77.2%, 51.5%)" stroke-width="1.5"></path><path d="M560.44 397.28L560.44 397.28" stroke="hsl(228.5, 77.2%, 51.5%)" stroke-width="1.5"></path><path d="M560.44 397.28L655.04 391.71" stroke="hsl(228.5, 77.2%, 51.5%)" stroke-width="1.5"></path><path d="M560.44 397.28L514.07 554.04" stroke="hsl(228.5, 77.2%, 51.5%)" stroke-width="1.5"></path><path d="M560.44 397.28L669.08 536.86" stroke="hsl(228.5, 77.2%, 51.5%)" stroke-width="1.5"></path><path d="M514.07 554.04L514.07 554.04" stroke="hsl(228.5, 77.2%, 51.5%)" stroke-width="1.5"></path><path d="M514.07 554.04L527.96 655.66" stroke="hsl(228.5, 77.2%, 51.5%)" stroke-width="1.5"></path><path d="M514.07 554.04L669.08 536.86" stroke="hsl(228.5, 77.2%, 51.5%)" stroke-width="1.5"></path><path d="M514.07 554.04L648.07 696.71" stroke="hsl(228.5, 77.2%, 51.5%)" stroke-width="1.5"></path><path d="M514.07 554.04L655.04 391.71" stroke="hsl(228.5, 77.2%, 51.5%)" stroke-width="1.5"></path><path d="M527.96 655.66L527.96 655.66" stroke="hsl(228.5, 77.2%, 51.5%)" stroke-width="1.5"></path><path d="M527.96 655.66L648.07 696.71" stroke="hsl(228.5, 77.2%, 51.5%)" stroke-width="1.5"></path><path d="M527.96 655.66L669.08 536.86" stroke="hsl(228.5, 77.2%, 51.5%)" stroke-width="1.5"></path><path d="M655.04 391.71L655.04 391.71" stroke="hsl(228.5, 77.2%, 51.5%)" stroke-width="1.5"></path><path d="M655.04 391.71L669.08 536.86" stroke="hsl(228.5, 77.2%, 51.5%)" stroke-width="1.5"></path><path d="M655.04 391.71L810.33 400" stroke="hsl(228.5, 77.2%, 51.5%)" stroke-width="1.5"></path><path d="M669.08 536.86L669.08 536.86" stroke="hsl(228.5, 77.2%, 51.5%)" stroke-width="1.5"></path><path d="M669.08 536.86L648.07 696.71" stroke="hsl(228.5, 77.2%, 51.5%)" stroke-width="1.5"></path><path d="M648.07 696.71L648.07 696.71" stroke="hsl(228.5, 77.2%, 51.5%)" stroke-width="1.5"></path><path d="M648.07 696.71L851.34 706.97" stroke="hsl(228.5, 77.2%, 51.5%)" stroke-width="1.5"></path><path d="M648.07 696.71L655.04 391.71" stroke="hsl(228.5, 77.2%, 51.5%)" stroke-width="1.5"></path><path d="M648.07 696.71L560.44 397.28" stroke="hsl(228.5, 77.2%, 51.5%)" stroke-width="1.5"></path><path d="M810.33 400L810.33 400" stroke="hsl(228.5, 77.2%, 51.5%)" stroke-width="1.5"></path><path d="M810.33 400L669.08 536.86" stroke="hsl(228.5, 77.2%, 51.5%)" stroke-width="1.5"></path><path d="M810.33 400L979.35 255.25" stroke="hsl(228.5, 77.2%, 51.5%)" stroke-width="1.5"></path><path d="M851.34 706.97L851.34 706.97" stroke="hsl(228.5, 77.2%, 51.5%)" stroke-width="1.5"></path><path d="M851.34 706.97L982.11 668.99" stroke="hsl(228.5, 77.2%, 51.5%)" stroke-width="1.5"></path><path d="M851.34 706.97L669.08 536.86" stroke="hsl(228.5, 77.2%, 51.5%)" stroke-width="1.5"></path><path d="M851.34 706.97L1136.87 684.62" stroke="hsl(228.5, 77.2%, 51.5%)" stroke-width="1.5"></path><path d="M851.34 706.97L810.33 400" stroke="hsl(228.5, 77.2%, 51.5%)" stroke-width="1.5"></path><path d="M851.34 706.97L1104.4 516.46" stroke="hsl(228.5, 77.2%, 51.5%)" stroke-width="1.5"></path><path d="M979.35 255.25L979.35 255.25" stroke="hsl(228.5, 77.2%, 51.5%)" stroke-width="1.5"></path><path d="M979.35 255.25L1094.38 361.52" stroke="hsl(228.5, 77.2%, 51.5%)" stroke-width="1.5"></path><path d="M979.35 255.25L1156.62 246.91" stroke="hsl(228.5, 77.2%, 51.5%)" stroke-width="1.5"></path><path d="M979.35 255.25L1104.4 516.46" stroke="hsl(228.5, 77.2%, 51.5%)" stroke-width="1.5"></path><path d="M979.35 255.25L1311.09 255.34" stroke="hsl(228.5, 77.2%, 51.5%)" stroke-width="1.5"></path><path d="M982.11 668.99L982.11 668.99" stroke="hsl(228.5, 77.2%, 51.5%)" stroke-width="1.5"></path><path d="M982.11 668.99L1136.87 684.62" stroke="hsl(228.5, 77.2%, 51.5%)" stroke-width="1.5"></path><path d="M1156.62 246.91L1156.62 246.91" stroke="hsl(228.5, 77.2%, 51.5%)" stroke-width="1.5"></path><path d="M1156.62 246.91L1094.38 361.52" stroke="hsl(228.5, 77.2%, 51.5%)" stroke-width="1.5"></path><path d="M1094.38 361.52L1094.38 361.52" stroke="hsl(228.5, 77.2%, 51.5%)" stroke-width="1.5"></path><path d="M1104.4 516.46L1104.4 516.46" stroke="hsl(228.5, 77.2%, 51.5%)" stroke-width="1.5"></path><path d="M1104.4 516.46L1247.44 500.26" stroke="hsl(228.5, 77.2%, 51.5%)" stroke-width="1.5"></path><path d="M1104.4 516.46L1094.38 361.52" stroke="hsl(228.5, 77.2%, 51.5%)" stroke-width="1.5"></path><path d="M1136.87 684.62L1136.87 684.62" stroke="hsl(228.5, 77.2%, 51.5%)" stroke-width="1.5"></path><path d="M1311.09 255.34L1311.09 255.34" stroke="hsl(228.5, 77.2%, 51.5%)" stroke-width="1.5"></path><path d="M1311.09 255.34L1411.49 362.62" stroke="hsl(228.5, 77.2%, 51.5%)" stroke-width="1.5"></path><path d="M1311.09 255.34L1156.62 246.91" stroke="hsl(228.5, 77.2%, 51.5%)" stroke-width="1.5"></path><path d="M1311.09 255.34L1417.74 69.83" stroke="hsl(228.5, 77.2%, 51.5%)" stroke-width="1.5"></path><path d="M1311.09 255.34L1094.38 361.52" stroke="hsl(228.5, 77.2%, 51.5%)" stroke-width="1.5"></path><path d="M1311.09 255.34L1247.44 500.26" stroke="hsl(228.5, 77.2%, 51.5%)" stroke-width="1.5"></path><path d="M1247.44 500.26L1247.44 500.26" stroke="hsl(228.5, 77.2%, 51.5%)" stroke-width="1.5"></path><path d="M1247.44 500.26L1401.75 512.04" stroke="hsl(228.5, 77.2%, 51.5%)" stroke-width="1.5"></path><path d="M1247.44 500.26L1094.38 361.52" stroke="hsl(228.5, 77.2%, 51.5%)" stroke-width="1.5"></path><path d="M1417.74 69.83L1417.74 69.83" stroke="hsl(228.5, 77.2%, 51.5%)" stroke-width="1.5"></path><path d="M1417.74 69.83L1540.73 -83.08" stroke="hsl(228.5, 77.2%, 51.5%)" stroke-width="1.5"></path><path d="M1411.49 362.62L1411.49 362.62" stroke="hsl(228.5, 77.2%, 51.5%)" stroke-width="1.5"></path><path d="M1411.49 362.62L1401.75 512.04" stroke="hsl(228.5, 77.2%, 51.5%)" stroke-width="1.5"></path><path d="M1401.75 512.04L1401.75 512.04" stroke="hsl(228.5, 77.2%, 51.5%)" stroke-width="1.5"></path><path d="M1401.75 512.04L1548.84 489.16" stroke="hsl(228.5, 77.2%, 51.5%)" stroke-width="1.5"></path><path d="M1540.73 -83.08L1540.73 -83.08" stroke="hsl(228.5, 77.2%, 51.5%)" stroke-width="1.5"></path><path d="M1540.73 -83.08L1579.07 230.88" stroke="hsl(228.5, 77.2%, 51.5%)" stroke-width="1.5"></path><path d="M1540.73 -83.08L1311.09 255.34" stroke="hsl(228.5, 77.2%, 51.5%)" stroke-width="1.5"></path><path d="M1548.84 489.16L1548.84 489.16" stroke="hsl(228.5, 77.2%, 51.5%)" stroke-width="1.5"></path><path d="M1600.53 663.68L1600.53 663.68" stroke="hsl(228.5, 77.2%, 51.5%)" stroke-width="1.5"></path><path d="M1600.53 663.68L1420.79 671.74" stroke="hsl(228.5, 77.2%, 51.5%)" stroke-width="1.5"></path><path d="M1600.53 663.68L1548.84 489.16" stroke="hsl(228.5, 77.2%, 51.5%)" stroke-width="1.5"></path><circle r="25" cx="365.36" cy="552.38" fill="url(#SvgjsRadialGradient1016)"></circle><circle r="25" cx="998.33" cy="387.24" fill="url(#SvgjsRadialGradient1016)"></circle><circle r="25" cx="1303.3" cy="53.83" fill="url(#SvgjsRadialGradient1016)"></circle><circle r="25" cx="1290.92" cy="673.46" fill="url(#SvgjsRadialGradient1016)"></circle><circle r="25" cx="1389.22" cy="-104.64" fill="url(#SvgjsRadialGradient1016)"></circle><circle r="25" cx="1420.79" cy="671.74" fill="url(#SvgjsRadialGradient1016)"></circle><circle r="25" cx="1579.07" cy="230.88" fill="url(#SvgjsRadialGradient1016)"></circle><circle r="25" cx="1566.75" cy="380.75" fill="url(#SvgjsRadialGradient1016)"></circle><circle r="5" cx="-76.64" cy="494.97" fill="#8b9ad9"></circle><circle r="5" cx="-39.19" cy="709.47" fill="#8b9ad9"></circle><circle r="5" cx="97.75" cy="487.76" fill="#8b9ad9"></circle><circle r="5" cx="74.05" cy="706.12" fill="#8b9ad9"></circle><circle r="5" cx="224.55" cy="558.43" fill="#8b9ad9"></circle><circle r="5" cx="560.44" cy="397.28" fill="#8b9ad9"></circle><circle r="5" cx="514.07" cy="554.04" fill="#8b9ad9"></circle><circle r="5" cx="527.96" cy="655.66" fill="#8b9ad9"></circle><circle r="5" cx="655.04" cy="391.71" fill="#8b9ad9"></circle><circle r="5" cx="669.08" cy="536.86" fill="#8b9ad9"></circle><circle r="5" cx="648.07" cy="696.71" fill="#8b9ad9"></circle><circle r="5" cx="810.33" cy="400" fill="#8b9ad9"></circle><circle r="5" cx="851.34" cy="706.97" fill="#8b9ad9"></circle><circle r="5" cx="979.35" cy="255.25" fill="#8b9ad9"></circle><circle r="5" cx="982.11" cy="668.99" fill="#8b9ad9"></circle><circle r="5" cx="1156.62" cy="246.91" fill="#8b9ad9"></circle><circle r="5" cx="1094.38" cy="361.52" fill="#8b9ad9"></circle><circle r="5" cx="1104.4" cy="516.46" fill="#8b9ad9"></circle><circle r="5" cx="1136.87" cy="684.62" fill="#8b9ad9"></circle><circle r="5" cx="1311.09" cy="255.34" fill="#8b9ad9"></circle><circle r="5" cx="1247.44" cy="500.26" fill="#8b9ad9"></circle><circle r="5" cx="1417.74" cy="69.83" fill="#8b9ad9"></circle><circle r="5" cx="1411.49" cy="362.62" fill="#8b9ad9"></circle><circle r="5" cx="1401.75" cy="512.04" fill="#8b9ad9"></circle><circle r="5" cx="1540.73" cy="-83.08" fill="#8b9ad9"></circle><circle r="5" cx="1548.84" cy="489.16" fill="#8b9ad9"></circle><circle r="5" cx="1600.53" cy="663.68" fill="#8b9ad9"></circle></g><defs><mask id="SvgjsMask1014"><rect width="1440" height="560" fill="#ffffff"></rect></mask><linearGradient x1="15.28%" y1="-39.29%" x2="84.72%" y2="139.29%" gradientUnits="userSpaceOnUse" id="SvgjsLinearGradient1015"><stop stop-color="#0e2a47" offset="0"></stop><stop stop-color="rgba(211, 117, 77, 1)" offset="1"></stop></linearGradient><radialGradient id="SvgjsRadialGradient1016"><stop stop-color="#ffffff" offset="0.1"></stop><stop stop-color="#1735b3" offset="0.2"></stop><stop stop-color="rgba(23, 53, 179, 0)" offset="1"></stop></radialGradient></defs></svg>