<svg xmlns="http://www.w3.org/2000/svg" version="1.1" xmlns:xlink="http://www.w3.org/1999/xlink" xmlns:svgjs="http://svgjs.com/svgjs" width="1440" height="560" preserveAspectRatio="none" viewBox="0 0 1440 560"><g mask="url(&quot;#SvgjsMask1000&quot;)" fill="none"><rect width="1440" height="560" x="0" y="0" fill="#0e2a47"></rect><g mask="url(&quot;#SvgjsMask1001&quot;)"><path d="M412.5 237.5L437.5 212.5M462.5 262.5L487.5 237.5L512.5 237.5L537.5 237.5L562.5 262.5M237.5 262.5L262.5 262.5M437.5 237.5L462.5 237.5L487.5 212.5L512.5 212.5M287.5 237.5L312.5 262.5L337.5 262.5L362.5 262.5L387.5 262.5M-12.5 287.5L12.5 287.5L37.5 287.5L62.5 287.5L87.5 262.5L112.5 262.5L137.5 262.5L162.5 262.5L187.5 262.5L212.5 262.5L237.5 262.5L262.5 237.5L287.5 237.5L312.5 237.5L337.5 237.5L362.5 237.5L387.5 237.5L412.5 237.5L437.5 237.5L462.5 262.5L487.5 262.5L512.5 262.5L537.5 262.5" stroke="#dd1133" stroke-width="4.17"></path><path d="M531.25 262.5 a6.25 6.25 0 1 0 12.5 0 a6.25 6.25 0 1 0 -12.5 0zM431.25 212.5 a6.25 6.25 0 1 0 12.5 0 a6.25 6.25 0 1 0 -12.5 0zM556.25 262.5 a6.25 6.25 0 1 0 12.5 0 a6.25 6.25 0 1 0 -12.5 0zM256.25 262.5 a6.25 6.25 0 1 0 12.5 0 a6.25 6.25 0 1 0 -12.5 0zM506.25 212.5 a6.25 6.25 0 1 0 12.5 0 a6.25 6.25 0 1 0 -12.5 0zM381.25 262.5 a6.25 6.25 0 1 0 12.5 0 a6.25 6.25 0 1 0 -12.5 0z" fill="#dd1133"></path><path d="M412.5 187.5L437.5 162.5L462.5 137.5L487.5 137.5L512.5 137.5L537.5 162.5L562.5 162.5M112.5 212.5L137.5 237.5L162.5 237.5M362.5 212.5L387.5 212.5L412.5 212.5M187.5 237.5L212.5 212.5M437.5 187.5L462.5 187.5L487.5 187.5L512.5 187.5L537.5 187.5L562.5 187.5M-12.5 262.5L12.5 262.5L37.5 262.5L62.5 262.5L87.5 237.5L112.5 212.5L137.5 212.5L162.5 212.5L187.5 237.5L212.5 237.5L237.5 237.5L262.5 212.5L287.5 212.5L312.5 212.5L337.5 212.5L362.5 212.5L387.5 187.5L412.5 187.5L437.5 187.5L462.5 162.5" stroke="#dd1133" stroke-width="4.17"></path><path d="M456.25 162.5 a6.25 6.25 0 1 0 12.5 0 a6.25 6.25 0 1 0 -12.5 0zM556.25 162.5 a6.25 6.25 0 1 0 12.5 0 a6.25 6.25 0 1 0 -12.5 0zM156.25 237.5 a6.25 6.25 0 1 0 12.5 0 a6.25 6.25 0 1 0 -12.5 0zM406.25 212.5 a6.25 6.25 0 1 0 12.5 0 a6.25 6.25 0 1 0 -12.5 0zM206.25 212.5 a6.25 6.25 0 1 0 12.5 0 a6.25 6.25 0 1 0 -12.5 0zM556.25 187.5 a6.25 6.25 0 1 0 12.5 0 a6.25 6.25 0 1 0 -12.5 0z" fill="#dd1133"></path><path d="M62.5 312.5L87.5 312.5L112.5 312.5M162.5 287.5L187.5 312.5L212.5 312.5L237.5 312.5L262.5 287.5M37.5 312.5L62.5 337.5M-12.5 312.5L12.5 312.5L37.5 312.5L62.5 312.5L87.5 287.5L112.5 287.5L137.5 287.5L162.5 287.5L187.5 287.5L212.5 287.5" stroke="#3a7cc3" stroke-width="4.17"></path><path d="M206.25 287.5 a6.25 6.25 0 1 0 12.5 0 a6.25 6.25 0 1 0 -12.5 0zM106.25 312.5 a6.25 6.25 0 1 0 12.5 0 a6.25 6.25 0 1 0 -12.5 0zM256.25 287.5 a6.25 6.25 0 1 0 12.5 0 a6.25 6.25 0 1 0 -12.5 0zM56.25 337.5 a6.25 6.25 0 1 0 12.5 0 a6.25 6.25 0 1 0 -12.5 0z" fill="#3a7cc3"></path><path d="M-12.5 237.5L12.5 212.5" stroke="#dd1133" stroke-width="4.17"></path><path d="M6.25 212.5 a6.25 6.25 0 1 0 12.5 0 a6.25 6.25 0 1 0 -12.5 0z" fill="#dd1133"></path><path d="M87.5 337.5L112.5 362.5L137.5 362.5M12.5 337.5L37.5 337.5M-12.5 337.5L12.5 337.5L37.5 362.5L62.5 362.5L87.5 337.5L112.5 337.5L137.5 337.5" stroke="#dd1133" stroke-width="4.17"></path><path d="M131.25 337.5 a6.25 6.25 0 1 0 12.5 0 a6.25 6.25 0 1 0 -12.5 0zM131.25 362.5 a6.25 6.25 0 1 0 12.5 0 a6.25 6.25 0 1 0 -12.5 0zM31.25 337.5 a6.25 6.25 0 1 0 12.5 0 a6.25 6.25 0 1 0 -12.5 0z" fill="#dd1133"></path><path d="M37.5 187.5L62.5 212.5L87.5 212.5M62.5 187.5L87.5 162.5L112.5 162.5L137.5 162.5M237.5 187.5L262.5 162.5L287.5 162.5M312.5 187.5L337.5 162.5L362.5 162.5L387.5 137.5M-12.5 212.5L12.5 187.5L37.5 187.5L62.5 187.5L87.5 187.5L112.5 187.5L137.5 187.5L162.5 187.5L187.5 187.5L212.5 187.5L237.5 187.5L262.5 187.5L287.5 187.5L312.5 187.5L337.5 187.5L362.5 187.5L387.5 162.5" stroke="#3a7cc3" stroke-width="4.17"></path><path d="M381.25 162.5 a6.25 6.25 0 1 0 12.5 0 a6.25 6.25 0 1 0 -12.5 0zM81.25 212.5 a6.25 6.25 0 1 0 12.5 0 a6.25 6.25 0 1 0 -12.5 0zM131.25 162.5 a6.25 6.25 0 1 0 12.5 0 a6.25 6.25 0 1 0 -12.5 0zM281.25 162.5 a6.25 6.25 0 1 0 12.5 0 a6.25 6.25 0 1 0 -12.5 0zM381.25 137.5 a6.25 6.25 0 1 0 12.5 0 a6.25 6.25 0 1 0 -12.5 0z" fill="#3a7cc3"></path><path d="M62.5 412.5L87.5 387.5L112.5 387.5L137.5 387.5L162.5 387.5M637.5 412.5L662.5 387.5M487.5 412.5L512.5 437.5L537.5 437.5M37.5 387.5L62.5 387.5M362.5 412.5L387.5 437.5M212.5 412.5L237.5 437.5L262.5 437.5L287.5 437.5L312.5 437.5L337.5 437.5L362.5 437.5L387.5 462.5L412.5 462.5L437.5 462.5L462.5 462.5M262.5 412.5L287.5 387.5L312.5 387.5L337.5 387.5L362.5 387.5M-12.5 362.5L12.5 362.5L37.5 387.5L62.5 412.5L87.5 412.5L112.5 412.5L137.5 412.5L162.5 412.5L187.5 412.5L212.5 412.5L237.5 412.5L262.5 412.5L287.5 412.5L312.5 412.5L337.5 412.5L362.5 412.5L387.5 412.5L412.5 412.5L437.5 412.5L462.5 412.5L487.5 412.5L512.5 412.5L537.5 412.5L562.5 412.5L587.5 412.5L612.5 412.5L637.5 412.5L662.5 412.5" stroke="#3a7cc3" stroke-width="4.17"></path><path d="M656.25 412.5 a6.25 6.25 0 1 0 12.5 0 a6.25 6.25 0 1 0 -12.5 0zM156.25 387.5 a6.25 6.25 0 1 0 12.5 0 a6.25 6.25 0 1 0 -12.5 0zM656.25 387.5 a6.25 6.25 0 1 0 12.5 0 a6.25 6.25 0 1 0 -12.5 0zM531.25 437.5 a6.25 6.25 0 1 0 12.5 0 a6.25 6.25 0 1 0 -12.5 0zM56.25 387.5 a6.25 6.25 0 1 0 12.5 0 a6.25 6.25 0 1 0 -12.5 0zM381.25 437.5 a6.25 6.25 0 1 0 12.5 0 a6.25 6.25 0 1 0 -12.5 0zM456.25 462.5 a6.25 6.25 0 1 0 12.5 0 a6.25 6.25 0 1 0 -12.5 0zM356.25 387.5 a6.25 6.25 0 1 0 12.5 0 a6.25 6.25 0 1 0 -12.5 0z" fill="#3a7cc3"></path><path d="M12.5 162.5L37.5 137.5L62.5 137.5L87.5 137.5M-12.5 187.5L12.5 162.5L37.5 162.5" stroke="#3a7cc3" stroke-width="4.17"></path><path d="M31.25 162.5 a6.25 6.25 0 1 0 12.5 0 a6.25 6.25 0 1 0 -12.5 0zM81.25 137.5 a6.25 6.25 0 1 0 12.5 0 a6.25 6.25 0 1 0 -12.5 0z" fill="#3a7cc3"></path><path d="M87.5 462.5L112.5 437.5L137.5 437.5L162.5 437.5M12.5 412.5L37.5 437.5M112.5 462.5L137.5 487.5M-12.5 387.5L12.5 412.5L37.5 412.5L62.5 437.5L87.5 462.5L112.5 462.5L137.5 462.5L162.5 462.5L187.5 462.5" stroke="#3a7cc3" stroke-width="4.17"></path><path d="M181.25 462.5 a6.25 6.25 0 1 0 12.5 0 a6.25 6.25 0 1 0 -12.5 0zM156.25 437.5 a6.25 6.25 0 1 0 12.5 0 a6.25 6.25 0 1 0 -12.5 0zM31.25 437.5 a6.25 6.25 0 1 0 12.5 0 a6.25 6.25 0 1 0 -12.5 0zM131.25 487.5 a6.25 6.25 0 1 0 12.5 0 a6.25 6.25 0 1 0 -12.5 0z" fill="#3a7cc3"></path></g></g><defs><mask id="SvgjsMask1000"><rect width="1440" height="560" fill="#ffffff"></rect></mask><mask id="SvgjsMask1001"><rect width="1440" height="560" fill="white"></rect><path d="M534.37 262.5 a3.13 3.13 0 1 0 6.26 0 a3.13 3.13 0 1 0 -6.26 0zM434.37 212.5 a3.13 3.13 0 1 0 6.26 0 a3.13 3.13 0 1 0 -6.26 0zM559.37 262.5 a3.13 3.13 0 1 0 6.26 0 a3.13 3.13 0 1 0 -6.26 0zM259.37 262.5 a3.13 3.13 0 1 0 6.26 0 a3.13 3.13 0 1 0 -6.26 0zM509.37 212.5 a3.13 3.13 0 1 0 6.26 0 a3.13 3.13 0 1 0 -6.26 0zM384.37 262.5 a3.13 3.13 0 1 0 6.26 0 a3.13 3.13 0 1 0 -6.26 0z" fill="black"></path><path d="M459.37 162.5 a3.13 3.13 0 1 0 6.26 0 a3.13 3.13 0 1 0 -6.26 0zM559.37 162.5 a3.13 3.13 0 1 0 6.26 0 a3.13 3.13 0 1 0 -6.26 0zM159.37 237.5 a3.13 3.13 0 1 0 6.26 0 a3.13 3.13 0 1 0 -6.26 0zM409.37 212.5 a3.13 3.13 0 1 0 6.26 0 a3.13 3.13 0 1 0 -6.26 0zM209.37 212.5 a3.13 3.13 0 1 0 6.26 0 a3.13 3.13 0 1 0 -6.26 0zM559.37 187.5 a3.13 3.13 0 1 0 6.26 0 a3.13 3.13 0 1 0 -6.26 0z" fill="black"></path><path d="M209.37 287.5 a3.13 3.13 0 1 0 6.26 0 a3.13 3.13 0 1 0 -6.26 0zM109.37 312.5 a3.13 3.13 0 1 0 6.26 0 a3.13 3.13 0 1 0 -6.26 0zM259.37 287.5 a3.13 3.13 0 1 0 6.26 0 a3.13 3.13 0 1 0 -6.26 0zM59.37 337.5 a3.13 3.13 0 1 0 6.26 0 a3.13 3.13 0 1 0 -6.26 0z" fill="black"></path><path d="M9.37 212.5 a3.13 3.13 0 1 0 6.26 0 a3.13 3.13 0 1 0 -6.26 0z" fill="black"></path><path d="M134.37 337.5 a3.13 3.13 0 1 0 6.26 0 a3.13 3.13 0 1 0 -6.26 0zM134.37 362.5 a3.13 3.13 0 1 0 6.26 0 a3.13 3.13 0 1 0 -6.26 0zM34.37 337.5 a3.13 3.13 0 1 0 6.26 0 a3.13 3.13 0 1 0 -6.26 0z" fill="black"></path><path d="M384.37 162.5 a3.13 3.13 0 1 0 6.26 0 a3.13 3.13 0 1 0 -6.26 0zM84.37 212.5 a3.13 3.13 0 1 0 6.26 0 a3.13 3.13 0 1 0 -6.26 0zM134.37 162.5 a3.13 3.13 0 1 0 6.26 0 a3.13 3.13 0 1 0 -6.26 0zM284.37 162.5 a3.13 3.13 0 1 0 6.26 0 a3.13 3.13 0 1 0 -6.26 0zM384.37 137.5 a3.13 3.13 0 1 0 6.26 0 a3.13 3.13 0 1 0 -6.26 0z" fill="black"></path><path d="M659.37 412.5 a3.13 3.13 0 1 0 6.26 0 a3.13 3.13 0 1 0 -6.26 0zM159.37 387.5 a3.13 3.13 0 1 0 6.26 0 a3.13 3.13 0 1 0 -6.26 0zM659.37 387.5 a3.13 3.13 0 1 0 6.26 0 a3.13 3.13 0 1 0 -6.26 0zM534.37 437.5 a3.13 3.13 0 1 0 6.26 0 a3.13 3.13 0 1 0 -6.26 0zM59.37 387.5 a3.13 3.13 0 1 0 6.26 0 a3.13 3.13 0 1 0 -6.26 0zM384.37 437.5 a3.13 3.13 0 1 0 6.26 0 a3.13 3.13 0 1 0 -6.26 0zM459.37 462.5 a3.13 3.13 0 1 0 6.26 0 a3.13 3.13 0 1 0 -6.26 0zM359.37 387.5 a3.13 3.13 0 1 0 6.26 0 a3.13 3.13 0 1 0 -6.26 0z" fill="black"></path><path d="M34.37 162.5 a3.13 3.13 0 1 0 6.26 0 a3.13 3.13 0 1 0 -6.26 0zM84.37 137.5 a3.13 3.13 0 1 0 6.26 0 a3.13 3.13 0 1 0 -6.26 0z" fill="black"></path><path d="M184.37 462.5 a3.13 3.13 0 1 0 6.26 0 a3.13 3.13 0 1 0 -6.26 0zM159.37 437.5 a3.13 3.13 0 1 0 6.26 0 a3.13 3.13 0 1 0 -6.26 0zM34.37 437.5 a3.13 3.13 0 1 0 6.26 0 a3.13 3.13 0 1 0 -6.26 0zM134.37 487.5 a3.13 3.13 0 1 0 6.26 0 a3.13 3.13 0 1 0 -6.26 0z" fill="black"></path></mask></defs></svg>