<svg xmlns="http://www.w3.org/2000/svg" version="1.1" xmlns:xlink="http://www.w3.org/1999/xlink" xmlns:svgjs="http://svgjs.com/svgjs" width="1440" height="560" preserveAspectRatio="none" viewBox="0 0 1440 560"><g mask="url(&quot;#SvgjsMask1000&quot;)" fill="none"><rect width="1440" height="560" x="0" y="0" fill="#0e2a47"></rect><path d="M17.75 -55.89L82.7 -18.39L82.7 56.61L17.75 94.11L-47.2 56.61L-47.2 -18.39zM17.75 394.11L82.7 431.61L82.7 506.61L17.75 544.11L-47.2 506.61L-47.2 431.61zM82.7 506.61L147.66 544.11L147.66 619.11L82.7 656.61L17.75 619.11L17.75 544.11zM212.61 56.61L277.56 94.11L277.56 169.11L212.61 206.61L147.66 169.11L147.66 94.11zM147.66 169.11L212.61 206.61L212.61 281.61L147.66 319.11L82.7 281.61L82.7 206.61zM147.66 394.11L212.61 431.61L212.61 506.61L147.66 544.11L82.7 506.61L82.7 431.61zM212.61 506.61L277.56 544.11L277.56 619.11L212.61 656.61L147.66 619.11L147.66 544.11zM342.52 56.61L407.47 94.11L407.47 169.11L342.52 206.61L277.56 169.11L277.56 94.11zM277.56 394.11L342.52 431.61L342.52 506.61L277.56 544.11L212.61 506.61L212.61 431.61zM407.47 -55.89L472.43 -18.39L472.43 56.61L407.47 94.11L342.52 56.61L342.52 -18.39zM472.43 281.61L537.38 319.11L537.38 394.11L472.43 431.61L407.47 394.11L407.47 319.11zM472.43 506.61L537.38 544.11L537.38 619.11L472.43 656.61L407.47 619.11L407.47 544.11zM537.38 169.11L602.33 206.61L602.33 281.61L537.38 319.11L472.43 281.61L472.43 206.61zM602.33 506.61L667.29 544.11L667.29 619.11L602.33 656.61L537.38 619.11L537.38 544.11zM667.29 169.11L732.24 206.61L732.24 281.61L667.29 319.11L602.33 281.61L602.33 206.61zM732.24 281.61L797.2 319.11L797.2 394.11L732.24 431.61L667.29 394.11L667.29 319.11zM732.24 506.61L797.2 544.11L797.2 619.11L732.24 656.61L667.29 619.11L667.29 544.11zM797.19 169.11L862.15 206.61L862.15 281.61L797.19 319.11L732.24 281.61L732.24 206.61zM797.19 394.11L862.15 431.61L862.15 506.61L797.19 544.11L732.24 506.61L732.24 431.61zM862.15 506.61L927.1 544.11L927.1 619.11L862.15 656.61L797.19 619.11L797.19 544.11zM992.06 506.61L1057.01 544.11L1057.01 619.11L992.06 656.61L927.1 619.11L927.1 544.11zM1057.01 -55.89L1121.96 -18.39L1121.96 56.61L1057.01 94.11L992.06 56.61L992.06 -18.39zM1121.96 56.61L1186.92 94.11L1186.92 169.11L1121.96 206.61L1057.01 169.11L1057.01 94.11zM1057.01 169.11L1121.96 206.61L1121.96 281.61L1057.01 319.11L992.06 281.61L992.06 206.61zM1057.01 394.11L1121.96 431.61L1121.96 506.61L1057.01 544.11L992.06 506.61L992.06 431.61zM1121.96 506.61L1186.92 544.11L1186.92 619.11L1121.96 656.61L1057.01 619.11L1057.01 544.11zM1186.92 -55.89L1251.87 -18.39L1251.87 56.61L1186.92 94.11L1121.96 56.61L1121.96 -18.39zM1251.87 56.61L1316.82 94.11L1316.82 169.11L1251.87 206.61L1186.92 169.11L1186.92 94.11zM1251.87 506.61L1316.82 544.11L1316.82 619.11L1251.87 656.61L1186.92 619.11L1186.92 544.11zM1316.83 -55.89L1381.78 -18.39L1381.78 56.61L1316.83 94.11L1251.87 56.61L1251.87 -18.39zM1316.83 169.11L1381.78 206.61L1381.78 281.61L1316.83 319.11L1251.87 281.61L1251.87 206.61zM1381.78 281.61L1446.73 319.11L1446.73 394.11L1381.78 431.61L1316.83 394.11L1316.83 319.11zM1316.83 394.11L1381.78 431.61L1381.78 506.61L1316.83 544.11L1251.87 506.61L1251.87 431.61zM1446.73 -55.89L1511.69 -18.39L1511.69 56.61L1446.73 94.11L1381.78 56.61L1381.78 -18.39zM1511.69 281.61L1576.64 319.11L1576.64 394.11L1511.69 431.61L1446.73 394.11L1446.73 319.11zM1511.69 506.61L1576.64 544.11L1576.64 619.11L1511.69 656.61L1446.73 619.11L1446.73 544.11z" stroke="#03305d" stroke-width="2"></path><path d="M10.25 -55.89 a7.5 7.5 0 1 0 15 0 a7.5 7.5 0 1 0 -15 0zM75.2 -18.39 a7.5 7.5 0 1 0 15 0 a7.5 7.5 0 1 0 -15 0zM75.2 56.61 a7.5 7.5 0 1 0 15 0 a7.5 7.5 0 1 0 -15 0zM10.25 94.11 a7.5 7.5 0 1 0 15 0 a7.5 7.5 0 1 0 -15 0zM-54.7 56.61 a7.5 7.5 0 1 0 15 0 a7.5 7.5 0 1 0 -15 0zM-54.7 -18.39 a7.5 7.5 0 1 0 15 0 a7.5 7.5 0 1 0 -15 0zM10.25 394.11 a7.5 7.5 0 1 0 15 0 a7.5 7.5 0 1 0 -15 0zM75.2 431.61 a7.5 7.5 0 1 0 15 0 a7.5 7.5 0 1 0 -15 0zM75.2 506.61 a7.5 7.5 0 1 0 15 0 a7.5 7.5 0 1 0 -15 0zM10.25 544.11 a7.5 7.5 0 1 0 15 0 a7.5 7.5 0 1 0 -15 0zM-54.7 506.61 a7.5 7.5 0 1 0 15 0 a7.5 7.5 0 1 0 -15 0zM-54.7 431.61 a7.5 7.5 0 1 0 15 0 a7.5 7.5 0 1 0 -15 0zM140.16 544.11 a7.5 7.5 0 1 0 15 0 a7.5 7.5 0 1 0 -15 0zM140.16 619.11 a7.5 7.5 0 1 0 15 0 a7.5 7.5 0 1 0 -15 0zM75.2 656.61 a7.5 7.5 0 1 0 15 0 a7.5 7.5 0 1 0 -15 0zM10.25 619.11 a7.5 7.5 0 1 0 15 0 a7.5 7.5 0 1 0 -15 0zM205.11 56.61 a7.5 7.5 0 1 0 15 0 a7.5 7.5 0 1 0 -15 0zM270.06 94.11 a7.5 7.5 0 1 0 15 0 a7.5 7.5 0 1 0 -15 0zM270.06 169.11 a7.5 7.5 0 1 0 15 0 a7.5 7.5 0 1 0 -15 0zM205.11 206.61 a7.5 7.5 0 1 0 15 0 a7.5 7.5 0 1 0 -15 0zM140.16 169.11 a7.5 7.5 0 1 0 15 0 a7.5 7.5 0 1 0 -15 0zM140.16 94.11 a7.5 7.5 0 1 0 15 0 a7.5 7.5 0 1 0 -15 0zM205.11 281.61 a7.5 7.5 0 1 0 15 0 a7.5 7.5 0 1 0 -15 0zM140.16 319.11 a7.5 7.5 0 1 0 15 0 a7.5 7.5 0 1 0 -15 0zM75.2 281.61 a7.5 7.5 0 1 0 15 0 a7.5 7.5 0 1 0 -15 0zM75.2 206.61 a7.5 7.5 0 1 0 15 0 a7.5 7.5 0 1 0 -15 0zM140.16 394.11 a7.5 7.5 0 1 0 15 0 a7.5 7.5 0 1 0 -15 0zM205.11 431.61 a7.5 7.5 0 1 0 15 0 a7.5 7.5 0 1 0 -15 0zM205.11 506.61 a7.5 7.5 0 1 0 15 0 a7.5 7.5 0 1 0 -15 0zM270.06 544.11 a7.5 7.5 0 1 0 15 0 a7.5 7.5 0 1 0 -15 0zM270.06 619.11 a7.5 7.5 0 1 0 15 0 a7.5 7.5 0 1 0 -15 0zM205.11 656.61 a7.5 7.5 0 1 0 15 0 a7.5 7.5 0 1 0 -15 0zM335.02 56.61 a7.5 7.5 0 1 0 15 0 a7.5 7.5 0 1 0 -15 0zM399.97 94.11 a7.5 7.5 0 1 0 15 0 a7.5 7.5 0 1 0 -15 0zM399.97 169.11 a7.5 7.5 0 1 0 15 0 a7.5 7.5 0 1 0 -15 0zM335.02 206.61 a7.5 7.5 0 1 0 15 0 a7.5 7.5 0 1 0 -15 0zM270.06 394.11 a7.5 7.5 0 1 0 15 0 a7.5 7.5 0 1 0 -15 0zM335.02 431.61 a7.5 7.5 0 1 0 15 0 a7.5 7.5 0 1 0 -15 0zM335.02 506.61 a7.5 7.5 0 1 0 15 0 a7.5 7.5 0 1 0 -15 0zM399.97 -55.89 a7.5 7.5 0 1 0 15 0 a7.5 7.5 0 1 0 -15 0zM464.93 -18.39 a7.5 7.5 0 1 0 15 0 a7.5 7.5 0 1 0 -15 0zM464.93 56.61 a7.5 7.5 0 1 0 15 0 a7.5 7.5 0 1 0 -15 0zM335.02 -18.39 a7.5 7.5 0 1 0 15 0 a7.5 7.5 0 1 0 -15 0zM464.93 281.61 a7.5 7.5 0 1 0 15 0 a7.5 7.5 0 1 0 -15 0zM529.88 319.11 a7.5 7.5 0 1 0 15 0 a7.5 7.5 0 1 0 -15 0zM529.88 394.11 a7.5 7.5 0 1 0 15 0 a7.5 7.5 0 1 0 -15 0zM464.93 431.61 a7.5 7.5 0 1 0 15 0 a7.5 7.5 0 1 0 -15 0zM399.97 394.11 a7.5 7.5 0 1 0 15 0 a7.5 7.5 0 1 0 -15 0zM399.97 319.11 a7.5 7.5 0 1 0 15 0 a7.5 7.5 0 1 0 -15 0zM464.93 506.61 a7.5 7.5 0 1 0 15 0 a7.5 7.5 0 1 0 -15 0zM529.88 544.11 a7.5 7.5 0 1 0 15 0 a7.5 7.5 0 1 0 -15 0zM529.88 619.11 a7.5 7.5 0 1 0 15 0 a7.5 7.5 0 1 0 -15 0zM464.93 656.61 a7.5 7.5 0 1 0 15 0 a7.5 7.5 0 1 0 -15 0zM399.97 619.11 a7.5 7.5 0 1 0 15 0 a7.5 7.5 0 1 0 -15 0zM399.97 544.11 a7.5 7.5 0 1 0 15 0 a7.5 7.5 0 1 0 -15 0zM529.88 169.11 a7.5 7.5 0 1 0 15 0 a7.5 7.5 0 1 0 -15 0zM594.83 206.61 a7.5 7.5 0 1 0 15 0 a7.5 7.5 0 1 0 -15 0zM594.83 281.61 a7.5 7.5 0 1 0 15 0 a7.5 7.5 0 1 0 -15 0zM464.93 206.61 a7.5 7.5 0 1 0 15 0 a7.5 7.5 0 1 0 -15 0zM594.83 506.61 a7.5 7.5 0 1 0 15 0 a7.5 7.5 0 1 0 -15 0zM659.79 544.11 a7.5 7.5 0 1 0 15 0 a7.5 7.5 0 1 0 -15 0zM659.79 619.11 a7.5 7.5 0 1 0 15 0 a7.5 7.5 0 1 0 -15 0zM594.83 656.61 a7.5 7.5 0 1 0 15 0 a7.5 7.5 0 1 0 -15 0zM659.79 169.11 a7.5 7.5 0 1 0 15 0 a7.5 7.5 0 1 0 -15 0zM724.74 206.61 a7.5 7.5 0 1 0 15 0 a7.5 7.5 0 1 0 -15 0zM724.74 281.61 a7.5 7.5 0 1 0 15 0 a7.5 7.5 0 1 0 -15 0zM659.79 319.11 a7.5 7.5 0 1 0 15 0 a7.5 7.5 0 1 0 -15 0zM789.7 319.11 a7.5 7.5 0 1 0 15 0 a7.5 7.5 0 1 0 -15 0zM789.7 394.11 a7.5 7.5 0 1 0 15 0 a7.5 7.5 0 1 0 -15 0zM724.74 431.61 a7.5 7.5 0 1 0 15 0 a7.5 7.5 0 1 0 -15 0zM659.79 394.11 a7.5 7.5 0 1 0 15 0 a7.5 7.5 0 1 0 -15 0zM724.74 506.61 a7.5 7.5 0 1 0 15 0 a7.5 7.5 0 1 0 -15 0zM789.7 544.11 a7.5 7.5 0 1 0 15 0 a7.5 7.5 0 1 0 -15 0zM789.7 619.11 a7.5 7.5 0 1 0 15 0 a7.5 7.5 0 1 0 -15 0zM724.74 656.61 a7.5 7.5 0 1 0 15 0 a7.5 7.5 0 1 0 -15 0zM789.69 169.11 a7.5 7.5 0 1 0 15 0 a7.5 7.5 0 1 0 -15 0zM854.65 206.61 a7.5 7.5 0 1 0 15 0 a7.5 7.5 0 1 0 -15 0zM854.65 281.61 a7.5 7.5 0 1 0 15 0 a7.5 7.5 0 1 0 -15 0zM789.69 319.11 a7.5 7.5 0 1 0 15 0 a7.5 7.5 0 1 0 -15 0zM789.69 394.11 a7.5 7.5 0 1 0 15 0 a7.5 7.5 0 1 0 -15 0zM854.65 431.61 a7.5 7.5 0 1 0 15 0 a7.5 7.5 0 1 0 -15 0zM854.65 506.61 a7.5 7.5 0 1 0 15 0 a7.5 7.5 0 1 0 -15 0zM789.69 544.11 a7.5 7.5 0 1 0 15 0 a7.5 7.5 0 1 0 -15 0zM919.6 544.11 a7.5 7.5 0 1 0 15 0 a7.5 7.5 0 1 0 -15 0zM919.6 619.11 a7.5 7.5 0 1 0 15 0 a7.5 7.5 0 1 0 -15 0zM854.65 656.61 a7.5 7.5 0 1 0 15 0 a7.5 7.5 0 1 0 -15 0zM789.69 619.11 a7.5 7.5 0 1 0 15 0 a7.5 7.5 0 1 0 -15 0zM984.56 506.61 a7.5 7.5 0 1 0 15 0 a7.5 7.5 0 1 0 -15 0zM1049.51 544.11 a7.5 7.5 0 1 0 15 0 a7.5 7.5 0 1 0 -15 0zM1049.51 619.11 a7.5 7.5 0 1 0 15 0 a7.5 7.5 0 1 0 -15 0zM984.56 656.61 a7.5 7.5 0 1 0 15 0 a7.5 7.5 0 1 0 -15 0zM1049.51 -55.89 a7.5 7.5 0 1 0 15 0 a7.5 7.5 0 1 0 -15 0zM1114.46 -18.39 a7.5 7.5 0 1 0 15 0 a7.5 7.5 0 1 0 -15 0zM1114.46 56.61 a7.5 7.5 0 1 0 15 0 a7.5 7.5 0 1 0 -15 0zM1049.51 94.11 a7.5 7.5 0 1 0 15 0 a7.5 7.5 0 1 0 -15 0zM984.56 56.61 a7.5 7.5 0 1 0 15 0 a7.5 7.5 0 1 0 -15 0zM984.56 -18.39 a7.5 7.5 0 1 0 15 0 a7.5 7.5 0 1 0 -15 0zM1179.42 94.11 a7.5 7.5 0 1 0 15 0 a7.5 7.5 0 1 0 -15 0zM1179.42 169.11 a7.5 7.5 0 1 0 15 0 a7.5 7.5 0 1 0 -15 0zM1114.46 206.61 a7.5 7.5 0 1 0 15 0 a7.5 7.5 0 1 0 -15 0zM1049.51 169.11 a7.5 7.5 0 1 0 15 0 a7.5 7.5 0 1 0 -15 0zM1114.46 281.61 a7.5 7.5 0 1 0 15 0 a7.5 7.5 0 1 0 -15 0zM1049.51 319.11 a7.5 7.5 0 1 0 15 0 a7.5 7.5 0 1 0 -15 0zM984.56 281.61 a7.5 7.5 0 1 0 15 0 a7.5 7.5 0 1 0 -15 0zM984.56 206.61 a7.5 7.5 0 1 0 15 0 a7.5 7.5 0 1 0 -15 0zM1049.51 394.11 a7.5 7.5 0 1 0 15 0 a7.5 7.5 0 1 0 -15 0zM1114.46 431.61 a7.5 7.5 0 1 0 15 0 a7.5 7.5 0 1 0 -15 0zM1114.46 506.61 a7.5 7.5 0 1 0 15 0 a7.5 7.5 0 1 0 -15 0zM984.56 431.61 a7.5 7.5 0 1 0 15 0 a7.5 7.5 0 1 0 -15 0zM1179.42 544.11 a7.5 7.5 0 1 0 15 0 a7.5 7.5 0 1 0 -15 0zM1179.42 619.11 a7.5 7.5 0 1 0 15 0 a7.5 7.5 0 1 0 -15 0zM1114.46 656.61 a7.5 7.5 0 1 0 15 0 a7.5 7.5 0 1 0 -15 0zM1179.42 -55.89 a7.5 7.5 0 1 0 15 0 a7.5 7.5 0 1 0 -15 0zM1244.37 -18.39 a7.5 7.5 0 1 0 15 0 a7.5 7.5 0 1 0 -15 0zM1244.37 56.61 a7.5 7.5 0 1 0 15 0 a7.5 7.5 0 1 0 -15 0zM1309.32 94.11 a7.5 7.5 0 1 0 15 0 a7.5 7.5 0 1 0 -15 0zM1309.32 169.11 a7.5 7.5 0 1 0 15 0 a7.5 7.5 0 1 0 -15 0zM1244.37 206.61 a7.5 7.5 0 1 0 15 0 a7.5 7.5 0 1 0 -15 0zM1244.37 506.61 a7.5 7.5 0 1 0 15 0 a7.5 7.5 0 1 0 -15 0zM1309.32 544.11 a7.5 7.5 0 1 0 15 0 a7.5 7.5 0 1 0 -15 0zM1309.32 619.11 a7.5 7.5 0 1 0 15 0 a7.5 7.5 0 1 0 -15 0zM1244.37 656.61 a7.5 7.5 0 1 0 15 0 a7.5 7.5 0 1 0 -15 0zM1309.33 -55.89 a7.5 7.5 0 1 0 15 0 a7.5 7.5 0 1 0 -15 0zM1374.28 -18.39 a7.5 7.5 0 1 0 15 0 a7.5 7.5 0 1 0 -15 0zM1374.28 56.61 a7.5 7.5 0 1 0 15 0 a7.5 7.5 0 1 0 -15 0zM1309.33 94.11 a7.5 7.5 0 1 0 15 0 a7.5 7.5 0 1 0 -15 0zM1309.33 169.11 a7.5 7.5 0 1 0 15 0 a7.5 7.5 0 1 0 -15 0zM1374.28 206.61 a7.5 7.5 0 1 0 15 0 a7.5 7.5 0 1 0 -15 0zM1374.28 281.61 a7.5 7.5 0 1 0 15 0 a7.5 7.5 0 1 0 -15 0zM1309.33 319.11 a7.5 7.5 0 1 0 15 0 a7.5 7.5 0 1 0 -15 0zM1244.37 281.61 a7.5 7.5 0 1 0 15 0 a7.5 7.5 0 1 0 -15 0zM1439.23 319.11 a7.5 7.5 0 1 0 15 0 a7.5 7.5 0 1 0 -15 0zM1439.23 394.11 a7.5 7.5 0 1 0 15 0 a7.5 7.5 0 1 0 -15 0zM1374.28 431.61 a7.5 7.5 0 1 0 15 0 a7.5 7.5 0 1 0 -15 0zM1309.33 394.11 a7.5 7.5 0 1 0 15 0 a7.5 7.5 0 1 0 -15 0zM1374.28 506.61 a7.5 7.5 0 1 0 15 0 a7.5 7.5 0 1 0 -15 0zM1309.33 544.11 a7.5 7.5 0 1 0 15 0 a7.5 7.5 0 1 0 -15 0zM1244.37 431.61 a7.5 7.5 0 1 0 15 0 a7.5 7.5 0 1 0 -15 0zM1439.23 -55.89 a7.5 7.5 0 1 0 15 0 a7.5 7.5 0 1 0 -15 0zM1504.19 -18.39 a7.5 7.5 0 1 0 15 0 a7.5 7.5 0 1 0 -15 0zM1504.19 56.61 a7.5 7.5 0 1 0 15 0 a7.5 7.5 0 1 0 -15 0zM1439.23 94.11 a7.5 7.5 0 1 0 15 0 a7.5 7.5 0 1 0 -15 0zM1504.19 281.61 a7.5 7.5 0 1 0 15 0 a7.5 7.5 0 1 0 -15 0zM1569.14 319.11 a7.5 7.5 0 1 0 15 0 a7.5 7.5 0 1 0 -15 0zM1569.14 394.11 a7.5 7.5 0 1 0 15 0 a7.5 7.5 0 1 0 -15 0zM1504.19 431.61 a7.5 7.5 0 1 0 15 0 a7.5 7.5 0 1 0 -15 0zM1504.19 506.61 a7.5 7.5 0 1 0 15 0 a7.5 7.5 0 1 0 -15 0zM1569.14 544.11 a7.5 7.5 0 1 0 15 0 a7.5 7.5 0 1 0 -15 0zM1569.14 619.11 a7.5 7.5 0 1 0 15 0 a7.5 7.5 0 1 0 -15 0zM1504.19 656.61 a7.5 7.5 0 1 0 15 0 a7.5 7.5 0 1 0 -15 0zM1439.23 619.11 a7.5 7.5 0 1 0 15 0 a7.5 7.5 0 1 0 -15 0zM1439.23 544.11 a7.5 7.5 0 1 0 15 0 a7.5 7.5 0 1 0 -15 0z" fill="#03305d"></path><path d="M177.41 498.06L220.71 523.06L220.71 573.06L177.41 598.06L134.11 573.06L134.11 523.06zM220.71 273.06L264.01 298.06L264.01 348.06L220.71 373.06L177.41 348.06L177.41 298.06zM264.01 348.06L307.31 373.06L307.31 423.06L264.01 448.06L220.71 423.06L220.71 373.06zM220.71 423.06L264.01 448.06L264.01 498.06L220.71 523.06L177.41 498.06L177.41 448.06zM393.92 -26.94L437.22 -1.94L437.22 48.06L393.92 73.06L350.62 48.06L350.62 -1.94zM437.22 48.06L480.53 73.06L480.53 123.06L437.22 148.06L393.92 123.06L393.92 73.06zM523.83 198.06L567.13 223.06L567.13 273.06L523.83 298.06L480.53 273.06L480.53 223.06zM523.83 348.06L567.13 373.06L567.13 423.06L523.83 448.06L480.53 423.06L480.53 373.06zM523.83 498.06L567.13 523.06L567.13 573.06L523.83 598.06L480.53 573.06L480.53 523.06zM610.43 48.06L653.74 73.06L653.74 123.06L610.43 148.06L567.13 123.06L567.13 73.06zM610.43 498.06L653.74 523.06L653.74 573.06L610.43 598.06L567.13 573.06L567.13 523.06zM653.74 273.06L697.04 298.06L697.04 348.06L653.74 373.06L610.43 348.06L610.43 298.06zM740.34 -26.94L783.64 -1.94L783.64 48.06L740.34 73.06L697.04 48.06L697.04 -1.94zM783.64 48.06L826.95 73.06L826.95 123.06L783.64 148.06L740.34 123.06L740.34 73.06zM870.25 48.06L913.55 73.06L913.55 123.06L870.25 148.06L826.95 123.06L826.95 73.06zM870.25 498.06L913.55 523.06L913.55 573.06L870.25 598.06L826.95 573.06L826.95 523.06zM956.85 348.06L1000.16 373.06L1000.16 423.06L956.85 448.06L913.55 423.06L913.55 373.06zM956.85 498.06L1000.16 523.06L1000.16 573.06L956.85 598.06L913.55 573.06L913.55 523.06zM1043.46 48.06L1086.76 73.06L1086.76 123.06L1043.46 148.06L1000.16 123.06L1000.16 73.06zM1130.06 198.06L1173.37 223.06L1173.37 273.06L1130.06 298.06L1086.76 273.06L1086.76 223.06zM1259.97 123.06L1303.27 148.06L1303.27 198.06L1259.97 223.06L1216.67 198.06L1216.67 148.06zM1303.27 198.06L1346.58 223.06L1346.58 273.06L1303.27 298.06L1259.97 273.06L1259.97 223.06zM1389.88 348.06L1433.18 373.06L1433.18 423.06L1389.88 448.06L1346.58 423.06L1346.58 373.06zM1433.18 -26.94L1476.48 -1.94L1476.48 48.06L1433.18 73.06L1389.88 48.06L1389.88 -1.94z" stroke="rgba(6, 80, 156, 0.93)" stroke-width="2"></path></g><defs><mask id="SvgjsMask1000"><rect width="1440" height="560" fill="#ffffff"></rect></mask></defs></svg>