<svg xmlns="http://www.w3.org/2000/svg" version="1.1" xmlns:xlink="http://www.w3.org/1999/xlink" xmlns:svgjs="http://svgjs.com/svgjs" width="1440" height="560" preserveAspectRatio="none" viewBox="0 0 1440 560"><g mask="url(&quot;#SvgjsMask1000&quot;)" fill="none"><rect width="1440" height="560" x="0" y="0" fill="#0e2a47"></rect><g transform="translate(0, 0)" stroke-linecap="round"><path d="M260 127.63 L260 432.37" stroke-width="15" stroke="#dd1133"></path><path d="M280 179.86 L280 380.14" stroke-width="15" stroke="#dd1133"></path><path d="M300 119.13 L300 440.87" stroke-width="15" stroke="#dd1133"></path><path d="M320 194.02 L320 365.98" stroke-width="15" stroke="#dd1133"></path><path d="M340 213.72 L340 346.28" stroke-width="15" stroke="#3a7cc3"></path><path d="M360 134.18 L360 425.82" stroke-width="15" stroke="#dd1133"></path><path d="M380 162.97 L380 397.03" stroke-width="15" stroke="#dd1133"></path><path d="M400 158.59 L400 401.4" stroke-width="15" stroke="#dd1133"></path><path d="M420 178.56 L420 381.44" stroke-width="15" stroke="#dd1133"></path><path d="M440 200.21 L440 359.79" stroke-width="15" stroke="#3a7cc3"></path><path d="M460 135.76 L460 424.24" stroke-width="15" stroke="#dd1133"></path><path d="M480 194.69 L480 365.31" stroke-width="15" stroke="#dd1133"></path><path d="M500 181.99 L500 378.01" stroke-width="15" stroke="#dd1133"></path><path d="M520 168.19 L520 391.81" stroke-width="15" stroke="#3a7cc3"></path><path d="M540 135.97 L540 424.03" stroke-width="15" stroke="#3a7cc3"></path><path d="M560 123.46 L560 436.54" stroke-width="15" stroke="#dd1133"></path><path d="M580 139.06 L580 420.94" stroke-width="15" stroke="#3a7cc3"></path><path d="M600 143.03 L600 416.97" stroke-width="15" stroke="#dd1133"></path><path d="M620 232.4 L620 327.61" stroke-width="15" stroke="#3a7cc3"></path><path d="M640 179.07 L640 380.93" stroke-width="15" stroke="#3a7cc3"></path><path d="M660 149.96 L660 410.04" stroke-width="15" stroke="#dd1133"></path><path d="M680 122.41 L680 437.6" stroke-width="15" stroke="#3a7cc3"></path><path d="M700 204.82 L700 355.18" stroke-width="15" stroke="#3a7cc3"></path><path d="M720 113 L720 447" stroke-width="15" stroke="#dd1133"></path><path d="M740 140.91 L740 419.1" stroke-width="15" stroke="#3a7cc3"></path><path d="M760 212.97 L760 347.03" stroke-width="15" stroke="#dd1133"></path><path d="M780 155.44 L780 404.56" stroke-width="15" stroke="#dd1133"></path><path d="M800 240.31 L800 319.69" stroke-width="15" stroke="#3a7cc3"></path><path d="M820 119.02 L820 440.98" stroke-width="15" stroke="#dd1133"></path><path d="M840 193.77 L840 366.23" stroke-width="15" stroke="#dd1133"></path><path d="M860 224.34 L860 335.67" stroke-width="15" stroke="#3a7cc3"></path><path d="M880 156.31 L880 403.69" stroke-width="15" stroke="#dd1133"></path><path d="M900 197.58 L900 362.42" stroke-width="15" stroke="#dd1133"></path><path d="M920 220.15 L920 339.86" stroke-width="15" stroke="#3a7cc3"></path><path d="M940 191.84 L940 368.16" stroke-width="15" stroke="#3a7cc3"></path><path d="M960 212.8 L960 347.2" stroke-width="15" stroke="#3a7cc3"></path><path d="M980 120.94 L980 439.06" stroke-width="15" stroke="#3a7cc3"></path><path d="M1000 211.91 L1000 348.1" stroke-width="15" stroke="#3a7cc3"></path><path d="M1020 124.84 L1020 435.16" stroke-width="15" stroke="#3a7cc3"></path><path d="M1040 149.13 L1040 410.87" stroke-width="15" stroke="#dd1133"></path><path d="M1060 215.97 L1060 344.03" stroke-width="15" stroke="#3a7cc3"></path><path d="M1080 121.22 L1080 438.78" stroke-width="15" stroke="#dd1133"></path><path d="M1100 128.69 L1100 431.31" stroke-width="15" stroke="#3a7cc3"></path><path d="M1120 248.85 L1120 311.14" stroke-width="15" stroke="#dd1133"></path><path d="M1140 140.24 L1140 419.76" stroke-width="15" stroke="#3a7cc3"></path><path d="M1160 116.57 L1160 443.43" stroke-width="15" stroke="#3a7cc3"></path><path d="M1180 132.17 L1180 427.83" stroke-width="15" stroke="#3a7cc3"></path></g></g><defs><mask id="SvgjsMask1000"><rect width="1440" height="560" fill="#ffffff"></rect></mask></defs></svg>