<svg xmlns="http://www.w3.org/2000/svg" version="1.1" xmlns:xlink="http://www.w3.org/1999/xlink" xmlns:svgjs="http://svgjs.com/svgjs" width="1440" height="560" preserveAspectRatio="none" viewBox="0 0 1440 560"><g mask="url(&quot;#SvgjsMask1004&quot;)" fill="none"><rect width="1440" height="560" x="0" y="0" fill="#0e2a47"></rect><path d="M0 396.79L10 348.68L20 415.58L30 467.95L40 509.47L50 513.11L60 513.35L70 511.41L80 468.75L90 442.63L100 470.96L110 472.48L120 407.22L130 348.53L140 355.12L150 361.56L160 417.03L170 349.1L180 414.22L190 455.04L200 410.71L210 406.86L220 358.73L230 408.11L240 347.46L250 308L260 319.88L270 365.4L280 372.6L290 398.71L300 400.62L310 344.2L320 276.71L330 248.63L340 228.32L350 260.19L360 301.42L370 346.04L380 330.82L390 298.71L400 359.36L410 323.45L420 330.21L430 364.6L440 327.04L450 394.61L460 405.34L470 365.91L480 431.17L490 366.08L500 363.71L510 372.44L520 415.98L530 382.52L540 365.6L550 404.97L560 390.54L570 391.09L580 390.58L590 364.25L600 297.7L610 276.73L620 279.55L630 211.96L640 218.08L650 260.61L660 208.95L670 265.16L680 273.33L690 341.58L700 309.86L710 271.25L720 211.28L730 163.19L740 185.83L750 189.43L760 232.81L770 286.6L780 245.12L790 238.1L800 240.1L810 187.42L820 189.5L830 180.5L840 161.63L850 228.14L860 190.03L870 164.72L880 168.02L890 179.86L900 139L910 112.53L920 173L930 188.66L940 231.07L950 237.3L960 185.54L970 161.51L980 200.71L990 208.12L1000 249.82L1010 310.66L1020 283.4L1030 280.5L1040 313.03L1050 307.94L1060 364.7L1070 402.08L1080 395.02L1090 438.61L1100 466.28L1110 473.8L1120 496.72L1130 480.53L1140 449.93L1150 460.82L1160 473.24L1170 469.55L1180 498.33L1190 429.29L1200 464.4L1210 409.15L1220 341.52L1230 383.91L1240 430.02L1250 361.36L1260 361.69L1270 388.32L1280 445.68L1290 503.48L1300 520.46L1310 475.24L1320 459.78L1330 469.14L1340 506.13L1350 503.62L1360 539.31L1370 513.99L1380 555.26L1390 487.92L1400 507.24L1410 440.7L1420 467.14L1430 456.77L1440 492.71" stroke="rgba(210, 63, 49, 1)" stroke-width="2"></path><path d="M0 396.79L10 348.68L20 415.58L30 467.95L40 509.47L50 513.11L60 513.35L70 511.41L80 468.75L90 442.63L100 470.96L110 472.48L120 407.22L130 348.53L140 355.12L150 361.56L160 417.03L170 349.1L180 414.22L190 455.04L200 410.71L210 406.86L220 358.73L230 408.11L240 347.46L250 308L260 319.88L270 365.4L280 372.6L290 398.71L300 400.62L310 344.2L320 276.71L330 248.63L340 228.32L350 260.19L360 301.42L370 346.04L380 330.82L390 298.71L400 359.36L410 323.45L420 330.21L430 364.6L440 327.04L450 394.61L460 405.34L470 365.91L480 431.17L490 366.08L500 363.71L510 372.44L520 415.98L530 382.52L540 365.6L550 404.97L560 390.54L570 391.09L580 390.58L590 364.25L600 297.7L610 276.73L620 279.55L630 211.96L640 218.08L650 260.61L660 208.95L670 265.16L680 273.33L690 341.58L700 309.86L710 271.25L720 211.28L730 163.19L740 185.83L750 189.43L760 232.81L770 286.6L780 245.12L790 238.1L800 240.1L810 187.42L820 189.5L830 180.5L840 161.63L850 228.14L860 190.03L870 164.72L880 168.02L890 179.86L900 139L910 112.53L920 173L930 188.66L940 231.07L950 237.3L960 185.54L970 161.51L980 200.71L990 208.12L1000 249.82L1010 310.66L1020 283.4L1030 280.5L1040 313.03L1050 307.94L1060 364.7L1070 402.08L1080 395.02L1090 438.61L1100 466.28L1110 473.8L1120 496.72L1130 480.53L1140 449.93L1150 460.82L1160 473.24L1170 469.55L1180 498.33L1190 429.29L1200 464.4L1210 409.15L1220 341.52L1230 383.91L1240 430.02L1250 361.36L1260 361.69L1270 388.32L1280 445.68L1290 503.48L1300 520.46L1310 475.24L1320 459.78L1330 469.14L1340 506.13L1350 503.62L1360 539.31L1370 513.99L1380 555.26L1390 487.92L1400 507.24L1410 440.7L1420 467.14L1430 456.77L1440 492.71L1440 560L0 560z" fill="url(#SvgjsLinearGradient1005)"></path></g><defs><mask id="SvgjsMask1004"><rect width="1440" height="560" fill="#ffffff"></rect></mask><linearGradient x1="50%" y1="0%" x2="50%" y2="100%" id="SvgjsLinearGradient1005"><stop stop-opacity="0.65" stop-color="rgba(210, 63, 49, 1)" offset="0"></stop><stop stop-opacity="0" stop-color="#fbedec" offset="0.8"></stop></linearGradient></defs></svg>